<?xml version="1.0" encoding="utf-8"?>
<!-- Generator: Adobe Illustrator 19.0.1, SVG Export Plug-In . SVG Version: 6.00 Build 0)  -->
<svg version="1.1" id="Слой_1" xmlns="http://www.w3.org/2000/svg" xmlns:xlink="http://www.w3.org/1999/xlink" x="0px" y="0px"
	 viewBox="0 0 512 512" style="enable-background:new 0 0 512 512;" xml:space="preserve">
<style type="text/css">
	.st0{fill:#93B332;}
	.st1{fill:#1B94C4;}
</style>
<g>
	<g>
		<path class="st0" d="M380.2088928,32.1015587c-18.6077881-10.3435078-38.4629517-18.3247643-59.0142822-23.7217331
			C300.0215759,2.8193536,278.0871887,0,256.0002441,0c-34.5526733,0-68.0803986,6.7707648-99.6517639,20.1243572
			c-30.4863739,12.894556-57.8623886,31.350893-81.3678055,54.8563156s-41.9617615,50.8815842-54.8563004,81.3676682
			C6.7709122,187.919693,0,221.447403,0,256.0000916c0,34.5526428,6.7709122,68.0805359,20.1243725,99.6517334
			c12.8945408,30.4860535,31.3508778,57.8622437,54.8563004,81.3674927
			c23.5054169,23.5055847,50.8814316,41.9619141,81.3678055,54.8563232C187.9198456,505.229248,221.4475708,512,256.0002441,512
			c24.4690857,0,48.6773682-3.4499207,71.9528809-10.2544556l-9.013916-30.833252
			c-20.3460999,5.9479675-41.5218506,8.9637756-62.9389648,8.9637756c-123.4458008,0-223.876297-100.4303589-223.876297-223.8759766
			S132.5544434,32.1239586,256.0002441,32.1239586c76.2319336,0,146.5251465,38.2499504,188.0346985,102.318573
			l26.9599915-17.467392C448.2019043,81.7948914,416.8087769,52.4459419,380.2088928,32.1015587z"/>
		<path class="st0" d="M256.0002441,56.9846153c-26.8607941,0-52.9255066,5.263588-77.4698944,15.6448708
			c-23.7003784,10.0245514-44.9826355,24.3724518-63.2555237,42.6453552
			c-18.2727356,18.2728729-32.6208038,39.55513-42.64534,63.2554779
			c-10.381134,24.5441132-15.644886,50.6086884-15.644886,77.4697723c0,26.8607483,5.263752,52.9253235,15.644886,77.4700012
			c10.0243912,23.7000732,24.3724518,44.9822083,42.64534,63.2550964
			c18.2733307,18.273468,39.5554504,32.6213684,63.2555237,42.6454773
			c24.5442352,10.381134,50.6089478,15.6448669,77.4698944,15.6448669c16.7715149,0,33.4400024-2.0922852,49.5429382-6.2189026
			l1.4818726-0.3797607l-6.4552612-25.1912231l-1.4819031,0.3797302
			c-13.9962769,3.5864563-28.4929504,5.4050598-43.0876465,5.4050598c-95.3983002,0-173.0105591-77.6122437-173.0105591-173.0103455
			c0-95.3982849,77.6122513-173.010376,173.0105591-173.010376c32.8923645,0,64.8857422,9.2633743,92.5212402,26.789032
			l1.2919006,0.8192749l13.9269409-21.9612579l-1.2919006-0.8193436
			C330.64151,67.6464233,293.832489,56.9846153,256.0002441,56.9846153z"/>
		<path class="st0" d="M224.7737885,140.9653168l1.476532-0.3997498l-6.7958679-25.1013412l-1.476532,0.3997803
			c-15.2448273,4.1270676-29.6447296,10.6976776-42.7999573,19.529213
			c-12.942627,8.6890259-24.3551178,19.3435364-33.9201508,31.6675568
			c-9.6679535,12.4562683-17.1923752,26.2917633-22.3642578,41.1222076
			c-5.3502655,15.3423767-8.0631027,31.4303436-8.0631027,47.8171082c0,19.5922546,3.8401108,38.6048889,11.4135208,56.5105896
			c7.312439,17.2884216,17.7779694,32.8123169,31.1055756,46.1396179
			c13.3282166,13.3282166,28.851944,23.7938843,46.1400757,31.1060181
			c17.9057007,7.5732727,36.9186401,11.4133911,56.5106201,11.4133911c12.9302368,0,25.7588806-1.7033081,38.1295471-5.0626831
			l1.4762268-0.4009399l-6.8155823-25.0962524l-1.4762573,0.4009399
			c-10.1492615,2.7561646-20.684845,4.1538391-31.3139343,4.1538391c-65.7077026,0-119.1647034-53.4568481-119.1647034-119.1645203
			C136.8355408,202.2868805,172.9970856,154.9828033,224.7737885,140.9653168z"/>
	</g>
	<g>
		<path class="st1" d="M285.094696,209.2780609h-27.3899841c-1.923996,0-3.7650146,0.6920013-5.471405,2.056778
			c-1.6885681,1.3504944-2.8405151,2.9964905-3.4152527,4.8664093l-19.1089478,55.3188934l-19.1006317-55.2933807
			c-0.5828857-1.8943481-1.7346802-3.5402069-3.4238586-4.8922272c-1.7074738-1.364624-3.5481873-2.0564728-5.4711151-2.0564728
			h-27.3899841c-1.9625702,0-3.6474609,0.7148895-5.0080872,2.1251678
			c-1.3520203,1.4024353-2.0374146,3.1484833-2.0374146,5.1895752v83.515686c0,2.050293,0.7131958,3.7902222,2.1196289,5.1711121
			c1.4013519,1.3775635,3.1039124,2.0761414,5.0605011,2.0761414h12.1135254c1.9578094,0,3.6506805-0.7001343,5.031601-2.0810547
			c1.3809204-1.3812256,2.0810547-3.1192627,2.0810547-5.1661987v-61.2181549l22.1610565,61.8872528l0.0115356,0.030426
			c0.7231903,1.7841492,1.9281464,3.3325806,3.5812225,4.6016235c1.6805725,1.2914734,3.506073,1.946106,5.4254761,1.946106
			h9.6235352c1.9164734,0,3.7518005-0.653717,5.4548187-1.942749c1.6819763-1.2733459,2.8790894-2.8282166,3.5632477-4.6347961
			l22.2286682-61.8998566V300.10849c0,2.0478516,0.7001648,3.7862244,2.0807495,5.1661987
			c1.3800049,1.3809204,3.072876,2.0810547,5.0319214,2.0810547h12.1135254c1.9578247,0,3.6503906-0.7001343,5.031311-2.0810547
			c1.3812256-1.3812256,2.0813599-3.1195679,2.0813599-5.1661987v-83.515686c0-2.037262-0.6721802-3.7814636-1.9989929-5.1846619
			C288.7349548,209.9946442,287.0595703,209.2780609,285.094696,209.2780609z"/>
		<path class="st1" d="M368.206665,209.2780609h-51.3478088c-1.9627075,0-3.647583,0.7148895-5.0079346,2.1250153
			c-1.3520203,1.4022675-2.0374146,3.1029816-2.0374146,5.0551147v83.7849121c0,1.9611816,0.7130737,3.6556091,2.1191711,5.036499
			c1.4015198,1.3775635,3.1042175,2.0761414,5.0608215,2.0761414h12.6516724c1.9578247,0,3.6506958-0.7001343,5.0316162-2.0810547
			c1.3812256-1.3809204,2.0813599-3.0737915,2.0813599-5.0315857v-14.3550415h31.4485168
			c27.5384521,0,41.5015869-12.8877258,41.5015869-38.3048401
			C409.708252,222.165802,395.7451172,209.2780609,368.206665,209.2780609z M382.7636108,247.5832214
			c0,6.9287109-1.8493042,11.6426697-5.4966125,14.0108032c-3.755188,2.4388123-9.3845825,3.6752625-16.7323608,3.6752625
			h-23.7764893v-35.3724365h23.7764893c7.3465576,0,12.9762573,1.236618,16.7323608,3.6754303
			C380.9143066,235.9411621,382.7636108,240.6551208,382.7636108,247.5832214z"/>
		<path class="st1" d="M509.9521484,211.3256226c-1.35849-1.3586426-3.0854797-2.0475616-5.1324158-2.0475616h-85.400177
			c-2.046936,0-3.7739563,0.6889191-5.1324158,2.0475616c-1.3587952,1.3587799-2.0475769,3.0856171-2.0475769,5.1325684v6.3258514
			c0,2.0506287,0.6906128,3.7679291,2.0524902,5.1038208c1.3578491,1.3331299,3.0830078,2.0089874,5.1275024,2.0089874h29.2276001
			v70.4808655c0,1.9642639,0.7038269,3.638092,2.0915222,4.9744263c1.3790588,1.3295898,3.068573,2.0036011,5.021759,2.0036011
			h12.7189941c1.9516907,0,3.6411743-0.6740112,5.020874-2.0036011c1.38797-1.3372803,2.0917969-3.0110779,2.0917969-4.9744263
			v-70.4808655h29.2276306c2.0444641,0,3.7696228-0.6758575,5.1271667-2.0086823
			C511.309082,226.552124,512,224.8348236,512,222.7840424v-6.3258514
			C512,214.411087,511.3109131,212.6842499,509.9521484,211.3256226z"/>
	</g>
</g>
</svg>
