<svg width="25" height="24" viewBox="0 0 25 24" fill="none" xmlns="http://www.w3.org/2000/svg">
<path d="M3.71582 0.801758C5.05789 -0.487253 7.34183 -0.465528 8.66211 0.855469L11.0449 3.24121C12.4234 4.62144 12.4234 6.86684 11.0449 8.24707L9.67188 9.62207L12.4961 12.4512L15.3564 15.3164L16.7314 13.9414C17.3981 13.273 18.2855 12.9043 19.2305 12.9043C20.1754 12.9043 21.0639 13.273 21.7314 13.9404L24.1143 16.3281C24.7818 16.9957 25.1504 17.885 25.1504 18.8301C25.1504 19.745 24.8039 20.6074 24.1758 21.2676C23.844 21.7149 22.1288 23.8089 18.9229 24.1123C18.6631 24.1377 18.3994 24.1504 18.1357 24.1504C14.7207 24.1503 10.9693 22.1047 6.96875 18.1172C6.95915 18.1083 6.94878 18.1002 6.93945 18.0908C4.82614 15.9748 3.23939 13.904 2.22656 11.9355C1.97197 11.4407 2.16576 10.8332 2.66016 10.5781C3.15654 10.3231 3.76192 10.5188 4.0166 11.0127C4.92365 12.7759 6.37105 14.6645 8.3252 16.626L9.0498 17.3311C12.6548 20.7394 15.9828 22.3616 18.7344 22.1055C20.0247 21.9833 20.9818 21.4728 21.6182 20.9902C22.2429 20.5165 22.5561 20.0717 22.5674 20.0557L22.5693 20.0537C22.6045 20.0014 22.6448 19.9509 22.6914 19.9053C22.9778 19.6187 23.1357 19.2362 23.1357 18.8301C23.1357 18.4237 22.9775 18.0416 22.6904 17.7539V17.7529L20.3076 15.3672C20.0205 15.0797 19.6383 14.9219 19.2305 14.9219C18.8236 14.9219 18.4425 15.0788 18.1562 15.3662V15.3672L16.0693 17.4551C15.6757 17.849 15.0392 17.8489 14.6455 17.4551L11.0713 13.877C11.0679 13.8735 11.0649 13.8697 11.0615 13.8662L7.53516 10.3359C7.3459 10.1464 7.24024 9.89018 7.24023 9.62305C7.24023 9.35623 7.34558 9.09906 7.53516 8.91016L9.62109 6.82227C10.214 6.22858 10.214 5.26166 9.62109 4.66797L7.23828 2.28223C6.66505 1.70926 5.65989 1.7086 5.08691 2.28223C5.04211 2.32708 4.9923 2.36607 4.94141 2.40137C4.85712 2.46008 2.52397 4.12832 2.90723 7.58203C2.96856 8.13526 2.57065 8.63281 2.01758 8.69434L2.01855 8.69531C1.46914 8.75902 0.96766 8.35789 0.90625 7.80469C0.427349 3.49605 3.16509 1.2138 3.71582 0.801758Z" fill="#A99E98" stroke="#A99E98" stroke-width="0.3"/>
</svg>
