<svg width="20" height="26" viewBox="0 0 20 26" fill="none" xmlns="http://www.w3.org/2000/svg">
<path d="M10.0039 0.75C11.2521 0.75 12.4641 1.00535 13.6045 1.50781C14.1529 1.74937 14.6822 2.04812 15.1768 2.39648H15.1758C15.6652 2.74068 16.126 3.13582 16.5439 3.57129L16.8506 3.90625C17.1492 4.24835 17.4242 4.61338 17.6719 4.99512C18.0054 5.50932 18.2923 6.0585 18.5234 6.62793C19.0053 7.81361 19.25 9.07275 19.25 10.3691C19.25 10.6998 19.2262 11.0479 19.1787 11.4053C19.1259 11.8027 18.7933 12.1152 18.3877 12.1152C18.3512 12.1152 18.3146 12.1133 18.2783 12.1084L18.2764 12.1074C17.832 12.0438 17.5368 11.6222 17.5947 11.1836L17.6377 10.7646C17.6471 10.6288 17.6514 10.4966 17.6514 10.3691C17.6514 8.23666 16.8538 6.23341 15.4072 4.72559L15.1299 4.45117C13.7192 3.1199 11.9139 2.39258 10.0039 2.39258C7.96237 2.39271 6.04225 3.22008 4.59473 4.72559C3.14728 6.23227 2.34917 8.23575 2.34863 10.3691L2.35742 10.7344C2.45096 12.5853 3.26814 14.8459 4.70898 17.1484L4.97461 17.5645C6.29859 19.5879 8.08057 21.6249 10.0449 23.3594C12.0477 21.6061 14.2643 18.8161 15.7236 16.1885C15.7265 16.1833 15.7299 16.1782 15.7334 16.1729C15.8755 15.9295 16.1342 15.7736 16.418 15.7734C16.5249 15.7734 16.6305 15.7959 16.7275 15.8379L16.8223 15.8867L16.9102 15.9482C17.1043 16.1045 17.2172 16.3451 17.2168 16.5977C17.2168 16.7396 17.1798 16.8796 17.1113 17.0029V17.0039C16.2515 18.5466 15.1728 20.1217 13.9922 21.5615C12.8452 22.96 11.6485 24.1762 10.5293 25.0752C10.3886 25.1885 10.218 25.25 10.0381 25.25C9.85237 25.25 9.67269 25.1824 9.53125 25.0635L9.53027 25.0625C8.32389 24.0433 7.18366 22.9261 6.1416 21.7422C5.21582 20.6897 4.38424 19.6035 3.66504 18.5068L3.36328 18.0361C2.54325 16.7191 1.90352 15.4206 1.46484 14.1768C0.994344 12.8433 0.752259 11.5617 0.75 10.3691L0.761719 9.88477C0.815076 8.75908 1.05495 7.66544 1.47656 6.62793C1.70815 6.05862 1.99377 5.50867 2.32812 4.99414C2.65849 4.48498 3.03872 4.00658 3.45703 3.57129C3.87546 3.13589 4.33625 2.74026 4.82617 2.39551L5.20312 2.14355C5.58649 1.90159 5.98765 1.68898 6.39941 1.50781C7.54079 1.00542 8.75375 0.750066 10.0039 0.75ZM10 5.08887C10.6638 5.08887 11.3081 5.22486 11.9141 5.49121C12.4998 5.74866 13.0251 6.11815 13.4756 6.58691C13.9255 7.05507 14.2791 7.60015 14.5254 8.20703C14.781 8.83512 14.9102 9.5026 14.9102 10.1885C14.9101 10.875 14.7811 11.5427 14.5254 12.1709C14.2791 12.777 13.9255 13.3229 13.4756 13.791C13.0257 14.2591 12.5004 14.6278 11.915 14.8857H11.9141C11.308 15.1521 10.6639 15.2881 10 15.2881C9.33612 15.2881 8.69191 15.1521 8.08594 14.8857H8.08496C7.57281 14.6601 7.10732 14.3494 6.69727 13.9619L6.52441 13.791C6.13063 13.3813 5.81108 12.9116 5.57227 12.3945L5.47461 12.1709C5.21895 11.5428 5.08986 10.875 5.08984 10.1885C5.08984 9.50258 5.21901 8.83511 5.47461 8.20703L5.57227 7.98242C5.81109 7.4651 6.13076 6.99655 6.52441 6.58691C6.97489 6.11817 7.50013 5.74866 8.08594 5.49121C8.69188 5.22486 9.33616 5.08887 10 5.08887ZM10 6.73242C9.17423 6.73242 8.393 7.04552 7.78125 7.62207L7.66113 7.74121C7.03471 8.39426 6.68848 9.26273 6.68848 10.1885C6.68851 11.1146 7.03479 11.9821 7.66113 12.6357C8.2889 13.2879 9.11894 13.6449 10 13.6455L10.1641 13.6406C10.9291 13.6015 11.6477 13.2931 12.2188 12.7549L12.3389 12.6357C12.9651 11.9828 13.3119 11.1147 13.3125 10.1885L13.3086 10.0156C13.2705 9.21236 12.9703 8.46063 12.4531 7.86621L12.3389 7.74121C11.711 7.08892 10.8814 6.73242 10 6.73242Z" fill="#A99E98" stroke="#A99E98" stroke-width="0.5"/>
</svg>
