<svg width="26" height="26" viewBox="0 0 26 26" fill="none" xmlns="http://www.w3.org/2000/svg">
<path d="M13.5 0.5V7.66699C13.4999 8.06574 13.1761 8.38867 12.7773 8.38867C12.379 8.3884 12.0558 8.06579 12.0557 7.66699V1.98633C9.83705 2.1765 7.71893 3.0322 5.98633 4.4541C4.00935 6.07671 2.6562 8.33521 2.15723 10.8438C1.65838 13.3522 2.04441 15.9563 3.25 18.2119C4.45569 20.4675 6.40673 22.2351 8.76953 23.2139C11.1324 24.1925 13.7617 24.3223 16.209 23.5801C18.6565 22.8376 20.7714 21.2692 22.1924 19.1426C23.6134 17.0159 24.2527 14.4615 24.002 11.916C23.7592 9.45211 22.6974 7.14304 20.9893 5.35742L20.8135 5.17871L20.7988 5.16406L20.7852 5.14746L20.7568 5.1123L20.7393 5.0918L20.7246 5.06934C20.5394 4.78824 20.5712 4.40757 20.8174 4.16113C21.0641 3.91449 21.4447 3.8833 21.7256 4.06836L21.748 4.08301L21.7686 4.10059L21.8037 4.12891L21.8242 4.14648L21.8428 4.16504L22.0244 4.35059L22.0283 4.35449C23.9623 6.37407 25.1648 8.98647 25.4395 11.7744C25.7229 14.6523 25 17.5398 23.3936 19.9443C21.7869 22.3488 19.3961 24.1224 16.6289 24.9619C13.8616 25.8014 10.8885 25.6554 8.2168 24.5488C5.54511 23.4421 3.33981 21.443 1.97656 18.8926C0.61337 16.3422 0.176079 13.3979 0.740234 10.5615C1.30441 7.7252 2.83495 5.17251 5.07031 3.33789C7.30577 1.50327 10.1081 0.500022 13 0.5H13.5ZM18.2666 5.37793C18.5486 5.09589 19.0061 5.09636 19.2881 5.37793C19.5701 5.65998 19.5701 6.11737 19.2881 6.39941L13.0664 12.6221C12.7845 12.9039 12.327 12.9041 12.0449 12.6221C11.763 12.3401 11.763 11.8826 12.0449 11.6006L18.2666 5.37793Z" fill="#A99E98" stroke="#A99E98"/>
</svg>
