<svg width="24" height="20" viewBox="0 0 24 20" fill="none" xmlns="http://www.w3.org/2000/svg">
<path d="M23.0771 6.90039C23.3509 6.90046 23.6117 7.01788 23.8027 7.22461C23.9936 7.4314 24.0996 7.71073 24.0996 8V16C24.0989 16.8194 23.798 17.6062 23.2607 18.1875C22.7239 18.7697 21.9938 19.0989 21.2305 19.0996H2.76953C2.00616 19.0989 1.27609 18.7697 0.739258 18.1875C0.202001 17.6062 -0.0989435 16.8194 -0.0996094 16V8C-0.0996094 7.71073 0.00638158 7.4314 0.197266 7.22461C0.388309 7.01788 0.649089 6.90046 0.922852 6.90039C1.19681 6.90039 1.4583 7.01766 1.64941 7.22461C1.8403 7.4314 1.94629 7.71073 1.94629 8V16C1.94629 16.2412 2.03509 16.4714 2.19043 16.6396C2.34548 16.8074 2.55412 16.9004 2.76953 16.9004H21.2305C21.4459 16.9004 21.6545 16.8074 21.8096 16.6396C21.9649 16.4714 22.0537 16.2412 22.0537 16V8C22.0537 7.71073 22.1597 7.4314 22.3506 7.22461C22.5417 7.01766 22.8032 6.90039 23.0771 6.90039ZM21.2305 0.900391C21.9938 0.901119 22.7239 1.23026 23.2607 1.8125C23.4913 2.06235 23.6815 2.35174 23.8232 2.66895L23.8242 2.66992C23.9247 2.89778 23.9486 3.15569 23.8936 3.40039C23.8453 3.61463 23.739 3.8089 23.5869 3.95703L23.5186 4.01758L12.6172 12.8779C12.4402 13.0218 12.2234 13.0996 12 13.0996C11.7766 13.0996 11.5598 13.0218 11.3828 12.8779L0.481445 4.01758C0.293224 3.86382 0.161581 3.64529 0.106445 3.40039C0.0513533 3.15569 0.0752697 2.89778 0.175781 2.66992L0.176758 2.66895C0.318531 2.35174 0.508745 2.06235 0.739258 1.8125C1.27609 1.23026 2.00616 0.901119 2.76953 0.900391H21.2305ZM12 10.6201L21.209 3.09961H2.79102L12 10.6201Z" fill="#A99E98" stroke="#A99E98" stroke-width="0.2"/>
</svg>
