<svg width="60" height="80" viewBox="0 0 60 80" fill="none" xmlns="http://www.w3.org/2000/svg">
<path d="M4.16392 0C6.70429 0.117368 9.28144 0.0358122 11.826 0.0379188L26.1183 0.0492038L35.8081 0.0871227C37.6113 0.0970538 39.489 0.202536 41.2862 0.0561263C41.2649 0.891849 41.2744 1.73103 41.2711 2.56721C39.6453 2.4873 37.9786 2.56495 36.3493 2.56826L26.619 2.58617L12.2782 2.58888C9.80206 2.58918 7.31536 2.54223 4.84009 2.5979C4.27884 2.61054 3.33532 2.53606 2.9354 2.99831C2.76473 3.19558 2.76281 3.55942 2.74516 3.81763C2.63543 5.42106 2.71521 7.07295 2.71773 8.68134L2.72677 74.373C2.72485 75.0348 2.66894 75.7196 2.73048 76.3781C2.75435 76.6336 2.79691 76.9909 3.03905 77.1364C3.57376 77.4579 10.9856 77.2356 12.1678 77.2355L46.0996 77.2857L52.9643 77.2467C54.0102 77.2446 56.166 77.4308 57.0895 77.1461C57.3895 76.5866 57.3238 74.686 57.3382 73.9822C57.3899 71.4275 57.3035 68.8551 57.2968 66.2984L57.2835 50.6893L57.3277 20.6516C58.1717 20.6397 59.0157 20.6377 59.8597 20.646C59.9558 25.1037 59.8746 29.5827 59.8787 34.0424L59.8953 58.4631L59.8907 71.0363C59.8989 72.9411 60.0973 74.9126 59.9388 76.8092C59.8741 77.5832 59.6701 78.3172 59.1352 78.8985C58.5409 79.5442 57.7157 79.83 56.8695 79.9245C55.3164 80.0979 53.0342 79.9212 51.4253 79.8999C48.2971 79.8583 45.1668 79.874 42.0383 79.8716L19.768 79.8722C14.7943 79.8326 9.82029 79.848 4.84706 79.9181C3.43393 79.94 1.92694 79.9895 0.857527 78.8834C0.236966 78.2417 0.0680763 77.2287 0.0149912 76.3615C-0.0305314 75.6176 0.0403457 74.8505 0.0594741 74.105C0.0849786 73.1137 0.071633 72.1197 0.0722261 71.1279L0.0621439 57.9998L0.0837926 4.13227C0.0754888 2.99289 0.0599205 1.62119 0.92574 0.778391C1.79897 -0.0713255 3.04602 0.005417 4.16392 0Z" fill="#6180A1"/>
<path d="M28.7519 8.40086C28.7834 8.39861 28.8147 8.3956 28.8462 8.39394C30.0954 8.32879 31.9056 8.19532 32.8731 9.14976C33.1845 9.45688 33.3853 9.85217 33.4855 10.2785C33.7511 11.4073 33.5521 15.0757 33.5748 16.5058C35.4179 16.5656 39.6266 15.9006 40.9931 17.1806C41.5952 17.7446 41.6282 18.5961 41.646 19.3701C41.6713 20.4723 41.8553 21.9732 41.0125 22.8179C40.6646 23.1664 40.1955 23.3528 39.721 23.4394C38.8833 23.5922 38.0053 23.4838 37.1592 23.4699C35.9654 23.4502 34.77 23.458 33.576 23.457L33.5641 27.4923C33.5637 28.3356 33.6433 29.2315 33.4869 30.061C33.4034 30.503 33.2379 30.9404 32.9332 31.2751C32.4409 31.8159 31.8334 31.9317 31.1451 31.9556C30.0049 31.9948 28.3019 32.1943 27.3796 31.3601C26.9724 30.992 26.7311 30.4717 26.6208 29.9365C26.4445 29.0804 26.5476 28.1407 26.5603 27.2702C26.579 25.9944 26.5966 24.7115 26.5428 23.4367C25.0213 23.4175 23.4995 23.437 21.979 23.4947C20.9925 23.5266 19.8166 23.4851 19.0715 22.7341C18.4435 22.1012 18.3384 21.2113 18.3327 20.358C18.3258 19.3194 18.2478 17.9246 19.0532 17.1526C20.1989 16.0546 24.8816 16.4352 26.5089 16.4632C26.4094 14.7376 26.161 10.6665 27.141 9.30655C27.5569 8.72919 28.0772 8.52019 28.7519 8.40086Z" fill="#6180A1"/>
<path d="M45.1872 46.7806C49.0767 46.3927 52.5434 49.2679 52.943 53.213C53.3426 57.1579 50.5248 60.6888 46.639 61.1121C42.7287 61.5379 39.2223 58.6563 38.8201 54.6863C38.4178 50.7162 41.2732 47.1709 45.1872 46.7806ZM46.344 58.5758C48.8502 58.3297 50.686 56.0693 50.4453 53.5258C50.2046 50.9824 47.9788 49.1179 45.4721 49.36C42.9627 49.6026 41.1228 51.8645 41.3636 54.4106C41.6046 56.9569 43.835 58.8223 46.344 58.5758Z" fill="#6180A1"/>
<path d="M22.5614 37.0901L38.1801 37.1111C40.8867 37.0943 43.5933 37.097 46.2998 37.1191C47.7768 37.1335 50.149 37.0026 51.5149 37.4229L52.0094 38.0462C52.0162 38.1902 52.0201 38.3342 52.0208 38.4783C52.0214 38.8875 51.9158 39.2961 51.6105 39.582C51.4126 39.7673 51.1882 39.8732 50.9225 39.9122C49.4552 40.1276 47.8183 39.9817 46.3342 39.9799C43.5386 39.9889 40.7431 39.9829 37.9475 39.9618C31.8455 40.0754 25.7239 39.9927 19.6197 39.9778L13.4851 39.98C12.2354 39.9847 10.9647 40.0401 9.71813 39.9602C9.36566 39.9376 9.07948 39.9066 8.78173 39.6928C8.46648 39.4665 8.28024 39.1205 8.23679 38.7341C8.19572 38.3679 8.27994 37.9175 8.5252 37.6336C8.77402 37.3459 9.16934 37.1978 9.53322 37.1412C10.6483 36.9682 11.9781 37.1054 13.1139 37.1051C16.2556 37.1042 19.4232 37.2046 22.5614 37.0901Z" fill="#6180A1"/>
<path d="M51.2235 60.6624L51.3019 60.7139C51.6537 61.4268 51.2188 70.3671 51.4275 72.3051C49.5884 71.0632 47.8117 69.5876 45.9074 68.4644C44.4457 69.4765 43.0236 70.5625 41.5751 71.5961L40.4188 72.3639C40.3466 71.1588 40.3798 69.9338 40.3728 68.7253C40.3617 66.0883 40.3759 63.4511 40.4158 60.8144C41.8314 61.7299 43.2914 62.5415 44.9845 62.7466C47.3846 63.0375 49.3661 62.1268 51.2235 60.6624Z" fill="#6180A1"/>
<path d="M10.153 54.3924C12.2201 54.5551 14.3629 54.3534 16.4393 54.3531C21.4145 54.3462 26.3898 54.3771 31.3647 54.4457C32.8442 54.4756 34.427 54.2597 35.8892 54.449C36.3484 54.5086 36.8109 54.6446 37.0903 55.0486C37.3207 55.3819 37.3544 55.8139 37.2678 56.2023C37.138 56.7843 36.8564 57.0535 36.3717 57.3578L35.4507 57.4115C30.1941 57.5501 24.9356 57.3662 19.6794 57.3677C17.572 57.3683 15.4615 57.3364 13.3546 57.3689C12.2976 57.3852 11.2428 57.52 10.1851 57.4575C9.6732 57.4273 9.08141 57.3608 8.67289 57.0194C8.39872 56.7902 8.2571 56.4668 8.22463 56.1128C8.18519 55.6835 8.24405 55.1929 8.54714 54.8649C8.97123 54.4061 9.5826 54.4109 10.153 54.3924Z" fill="#6180A1"/>
<path d="M46.014 2.41177C46.6594 2.96897 47.2396 3.62864 47.8364 4.23956L51.1286 7.60562C53.4138 9.93945 55.7955 12.1898 58.0569 14.5425C58.2657 14.76 58.7761 15.1873 58.8044 15.4583L45.9443 15.4443C46.0351 13.7711 45.947 12.1055 45.9383 10.4319C45.9242 7.76948 45.9515 5.07423 46.014 2.41177Z" fill="#6180A1"/>
<path d="M9.2242 63.1663C14.4245 63.0542 19.6433 63.197 24.8471 63.1659C27.3983 63.1407 29.9498 63.1323 32.5011 63.1407C33.827 63.1502 35.1998 63.092 36.5149 63.262C36.531 63.2742 36.5473 63.2862 36.5631 63.2987C36.5895 63.3196 36.6153 63.3413 36.6417 63.3621C36.9887 63.6352 37.1751 63.9158 37.2541 64.3623C37.3254 64.7643 37.2824 65.1877 37.039 65.5247C36.7904 65.8685 36.4549 65.9853 36.057 66.0554C34.2741 66.1693 32.4545 66.039 30.6668 66.0313L20.0851 66.0331C17.8679 66.0385 15.6546 66.0986 13.4381 66.1341C11.9938 66.1574 10.4591 66.272 9.03544 66.0263C8.79581 65.8542 8.56835 65.6738 8.41933 65.4112C8.1192 64.8829 8.25266 64.3689 8.39382 63.8186C8.65969 63.5503 8.88983 63.346 9.2242 63.1663Z" fill="#6180A1"/>
<path d="M9.25401 45.8144C15.1338 45.733 21.0245 45.8448 26.9064 45.8418L32.5358 45.8281C33.7486 45.8203 34.9827 45.7351 36.1899 45.8835C36.622 45.9366 37.0336 46.0874 37.2961 46.4622C37.5188 46.7803 37.5642 47.1821 37.4829 47.5569C37.3649 48.1021 37.0894 48.3519 36.6441 48.6448C35.5097 48.8767 33.599 48.7183 32.3786 48.715L23.7272 48.7055L13.7731 48.7116C12.6291 48.7136 10.343 48.862 9.3449 48.6424C8.9653 48.5589 8.54611 48.295 8.35883 47.9414C8.16665 47.5783 8.21722 47.1693 8.344 46.7937C8.51467 46.2883 8.79492 46.0523 9.25401 45.8144Z" fill="#6180A1"/>
</svg>
