<svg width="296" height="144" viewBox="0 0 296 144" fill="none" xmlns="http://www.w3.org/2000/svg">
<path d="M94.7315 121.818L100.817 97.8927C102.446 91.4295 107.741 88.1896 116.702 88.1729H128.682C129.241 88.1729 129.716 88.4139 130.108 88.8956C130.499 89.3777 130.695 89.926 130.695 90.5405V121.569C130.695 122.217 130.483 122.77 130.06 123.227C129.636 123.684 129.113 123.912 128.49 123.912H123.914C123.291 123.912 122.76 123.684 122.321 123.227C121.881 122.77 121.662 122.217 121.662 121.569V95.226H115.816C114.282 95.226 112.944 95.6789 111.803 96.5843C110.66 97.49 109.89 98.707 109.491 100.235L104.004 121.569C103.844 122.251 103.485 122.811 102.926 123.252C102.366 123.692 101.776 123.912 101.153 123.912H96.2888C95.7296 123.912 95.3185 123.729 95.0549 123.364C94.7914 122.998 94.6634 122.691 94.6716 122.442C94.6794 122.192 94.6993 121.985 94.7315 121.818Z" fill="#1EA2D7"/>
<path d="M137.948 121.569V90.5405C137.948 89.8594 138.164 89.2944 138.595 88.8458C139.026 88.3972 139.569 88.1729 140.224 88.1729H144.441C145.064 88.1729 145.595 88.3972 146.034 88.8458C146.473 89.2944 146.693 89.8427 146.693 90.4907V115.438L160.326 90.5405C160.693 89.8925 161.197 89.336 161.836 88.8707C162.474 88.4057 163.065 88.1729 163.609 88.1729H170.677C171.3 88.1729 171.827 88.4057 172.258 88.8707C172.689 89.336 172.905 89.8925 172.905 90.5405V121.569C172.905 122.217 172.681 122.77 172.234 123.227C171.787 123.684 171.252 123.912 170.629 123.912H166.412C165.789 123.912 165.258 123.684 164.819 123.227C164.379 122.77 164.16 122.217 164.16 121.569V98.441L151.653 121.569C151.285 122.217 150.766 122.77 150.095 123.227C149.425 123.684 148.778 123.912 148.155 123.912H140.224C139.601 123.912 139.066 123.684 138.619 123.227C138.171 122.77 137.948 122.217 137.948 121.569Z" fill="#1EA2D7"/>
<path d="M177.454 121.569V119.177C177.454 118.529 177.673 117.98 178.112 117.532C178.552 117.083 179.083 116.859 179.706 116.859H181.575L186.031 97.9924C187.58 91.4463 192.772 88.1729 201.605 88.1729H214.543C215.166 88.1729 215.697 88.3972 216.136 88.8458C216.575 89.2944 216.795 89.8427 216.795 90.4907V121.619C216.795 122.267 216.575 122.811 216.136 123.252C215.697 123.692 215.166 123.912 214.543 123.912H179.706C179.083 123.912 178.552 123.684 178.112 123.227C177.673 122.77 177.454 122.217 177.454 121.569ZM190.799 116.859H207.786V95.226H200.622C199.105 95.226 197.851 95.6582 196.861 96.5219C195.87 97.3861 195.191 98.5905 194.824 100.136L190.799 116.859Z" fill="#1EA2D7"/>
<path d="M224.072 121.519V90.4907C224.072 89.8427 224.296 89.2944 224.743 88.8458C225.19 88.3972 225.725 88.1729 226.348 88.1729H253.974C254.597 88.1729 255.128 88.4057 255.567 88.8707C256.006 89.336 256.226 89.8925 256.226 90.5405V92.8832C256.226 93.5312 256.006 94.0838 255.567 94.5406C255.128 94.9978 254.597 95.226 253.974 95.226H233.105V102.478H251.075C251.698 102.478 252.228 102.707 252.668 103.164C253.107 103.621 253.327 104.173 253.327 104.821V107.164C253.327 107.812 253.107 108.365 252.668 108.821C252.228 109.278 251.698 109.507 251.075 109.507H233.105V116.859H253.926C254.533 116.859 255.052 117.083 255.483 117.532C255.914 117.98 256.13 118.529 256.13 119.177V121.569C256.13 122.217 255.906 122.77 255.459 123.227C255.012 123.684 254.477 123.912 253.854 123.912H226.348C225.725 123.912 225.19 123.684 224.743 123.227C224.296 122.77 224.072 122.201 224.072 121.519Z" fill="#1EA2D7"/>
<path d="M260.995 121.569V90.5405C260.995 89.8925 261.211 89.336 261.642 88.8707C262.073 88.4057 262.6 88.1729 263.223 88.1729H281.505C291.168 88.1729 296 92.8046 296 102.067C296 111.33 291.168 115.962 281.505 115.962H270.028V121.569C270.028 122.217 269.808 122.77 269.369 123.227C268.93 123.684 268.399 123.912 267.776 123.912H263.271C262.648 123.912 262.113 123.684 261.666 123.227C261.219 122.77 260.995 122.217 260.995 121.569ZM270.028 108.909H278.773C281.457 108.909 283.493 108.439 284.883 107.5C286.272 106.562 286.967 104.751 286.967 102.067C286.967 99.3841 286.272 97.573 284.883 96.6341C283.493 95.6956 281.457 95.226 278.773 95.226H270.028V108.909Z" fill="#1EA2D7"/>
<path d="M62.2177 84.2634V60.2328C62.2177 59.7036 62.3852 59.2582 62.7203 58.8967C63.0554 58.5354 63.4649 58.3545 63.9489 58.3545H71.5255C72.0095 58.3545 72.4685 58.5354 72.903 58.8967C73.3373 59.2582 73.629 59.6906 73.778 60.1941L79.2695 76.7309L84.7611 60.1941C84.9101 59.6906 85.2015 59.2582 85.6361 58.8967C86.0703 58.5354 86.5296 58.3545 87.0136 58.3545H94.5902C95.0742 58.3545 95.4805 58.5354 95.8095 58.8967C96.1381 59.2582 96.3028 59.7036 96.3028 60.2328V84.2634C96.3028 84.7929 96.132 85.2349 95.7908 85.5898C95.4494 85.9451 95.0369 86.1224 94.5529 86.1224H91.2021C90.7181 86.1224 90.3054 85.9451 89.9642 85.5898C89.6227 85.2349 89.4523 84.7929 89.4523 84.2634V65.3449L82.881 84.3796C82.707 84.8574 82.4031 85.2673 81.9688 85.6093C81.5342 85.9514 81.0753 86.1224 80.5912 86.1224H77.9292C77.4452 86.1224 76.9891 85.9514 76.561 85.6093C76.1328 85.2673 75.8257 84.8574 75.6395 84.3796L69.0868 65.3449V84.2634C69.0868 84.7929 68.9161 85.2349 68.5749 85.5898C68.2334 85.9451 67.821 86.1224 67.337 86.1224H63.9862C63.5022 86.1224 63.0862 85.9451 62.7389 85.5898C62.3913 85.2349 62.2177 84.7929 62.2177 84.2634Z" fill="#1EA2D7"/>
<path d="M101.645 84.3022V60.1941C101.645 59.6906 101.813 59.2582 102.148 58.8967C102.483 58.5354 102.893 58.3545 103.377 58.3545H117.58C125.089 58.3545 128.843 61.9531 128.843 69.1499C128.843 76.3469 125.089 79.9453 117.58 79.9453H108.664V84.3022C108.664 84.8056 108.493 85.2349 108.152 85.5898C107.81 85.9451 107.398 86.1224 106.914 86.1224H103.414C102.93 86.1224 102.514 85.9451 102.167 85.5898C101.819 85.2349 101.645 84.8056 101.645 84.3022ZM108.664 74.4653H115.458C117.543 74.4653 119.125 74.1007 120.205 73.3713C121.285 72.642 121.825 71.2348 121.825 69.1499C121.825 67.0652 121.285 65.6581 120.205 64.9286C119.125 64.1993 117.543 63.8345 115.458 63.8345H108.664V74.4653Z" fill="#1EA2D7"/>
<path d="M129.978 62.0143V60.1941C129.978 59.6649 130.146 59.2259 130.481 58.8773C130.816 58.5288 131.238 58.3545 131.747 58.3545H155.37C155.879 58.3545 156.301 58.5288 156.636 58.8773C156.971 59.2259 157.139 59.6649 157.139 60.1941V62.0143C157.139 62.5438 156.971 62.9794 156.636 63.3213C156.301 63.6635 155.879 63.8345 155.37 63.8345H147.067V84.3409C147.067 84.8444 146.897 85.2673 146.556 85.6093C146.214 85.9514 145.802 86.1224 145.318 86.1224H141.799C141.315 86.1224 140.902 85.9514 140.561 85.6093C140.22 85.2673 140.049 84.8444 140.049 84.3409V63.8345H131.747C131.238 63.8345 130.816 63.6635 130.481 63.3213C130.146 62.9794 129.978 62.5438 129.978 62.0143Z" fill="#1EA2D7"/>
<path d="M77.9247 102.892C75.2464 103.677 72.3407 104.243 69.2174 104.577C52.6097 106.353 37.8433 89.9091 37.8433 71.9995C37.8433 57.6065 49.0522 44.1893 62.3682 39.4743L59.3735 33.4043C43.6895 39.6419 30.3434 55.167 30.6874 71.9995C31.13 93.706 49.6499 113.501 69.8945 112.416C73.5458 112.221 77.066 111.541 80.389 110.435L77.9247 102.892Z" fill="#ABD03B"/>
<path d="M17.0972 71.6764C17.0972 101.501 41.1554 126.228 69.2173 124.802C73.8765 124.566 78.3637 123.758 82.6067 122.437L80.8724 115.451C77.0732 116.669 73.096 117.46 69.043 117.778C44.5782 119.694 24.7041 97.6301 24.229 71.8541C23.7516 46.0305 42.1127 25.4887 67.9702 25.4925C78.164 25.495 86.596 28.5512 93.2648 33.773L97.3106 27.3803C88.9376 21.279 78.4935 17.6498 66.6472 17.4859C38.5528 17.0981 17.0972 41.8508 17.0972 71.6764Z" fill="#ABD03B"/>
<path d="M69.2173 0C30.9904 0 0 32.2351 0 72C0 111.765 30.9904 144 69.2173 144C76.2482 144 83.0336 142.91 89.4258 140.884L86.994 131.454C81.9813 133.13 76.7365 134.178 71.3774 134.519C41.4356 136.42 9.07897 107.246 9.07897 73.8853C9.07897 42.1932 33.6063 14.348 66.4067 10.9489C87.7758 8.73464 108.287 21.2636 120.036 39.3459L127.321 32.8568C114.984 13.0807 93.569 0 69.2173 0Z" fill="#ABD03B"/>
</svg>
