<svg width="1084" height="520" viewBox="0 0 1084 520" fill="none" xmlns="http://www.w3.org/2000/svg">
<g clip-path="url(#clip0_animals_logo)">
<path d="M308.071 369.585C299.13 372.103 289.431 373.921 279.004 374.993C223.563 380.691 174.27 327.917 174.27 270.439C174.27 224.246 211.688 181.185 256.14 166.053L246.143 146.572C193.786 166.591 149.233 216.417 150.381 270.439C151.859 340.103 213.683 403.632 281.264 400.151C293.453 399.525 305.205 397.341 316.298 393.792L308.071 369.585Z" fill="#ABD03B"/>
<path d="M105.014 269.399C105.014 365.117 185.326 444.477 279.004 439.9C294.557 439.141 309.537 436.547 323.701 432.308L317.912 409.888C305.229 413.798 291.952 416.336 278.422 417.356C196.753 423.507 130.408 352.694 128.822 269.969C127.228 187.091 188.522 121.165 274.841 121.177C308.87 121.185 337.018 130.994 359.28 147.752L372.786 127.236C344.835 107.655 309.97 96.0072 270.424 95.4812C176.638 94.2366 105.014 173.677 105.014 269.399Z" fill="#ABD03B"/>
<path d="M279.004 39.3635C151.393 39.3635 47.9395 142.818 47.9395 270.439C47.9395 398.06 151.393 501.514 279.004 501.514C302.475 501.514 325.126 498.017 346.465 491.513L338.347 461.248C321.613 466.628 304.105 469.992 286.215 471.084C186.262 477.187 78.2473 383.557 78.2473 276.489C78.2473 174.777 160.125 85.4115 269.621 74.5028C340.957 67.3963 409.429 107.606 448.65 165.639L472.968 144.813C431.784 81.3444 360.296 39.3635 279.004 39.3635Z" fill="#ABD03B"/>
<path d="M267.278 314.772V234.256C267.278 232.483 267.862 230.99 269.03 229.779C270.197 228.568 271.625 227.963 273.312 227.963H299.718C301.404 227.963 303.005 228.568 304.519 229.779C306.033 230.99 307.049 232.439 307.568 234.126L326.708 289.533L345.847 234.126C346.366 232.439 347.383 230.99 348.896 229.779C350.41 228.568 352.011 227.963 353.698 227.963H380.104C381.79 227.963 383.196 228.568 384.321 229.779C385.489 230.99 386.072 232.483 386.072 234.256V314.772C386.072 316.545 385.467 318.037 384.256 319.248C383.088 320.416 381.661 321 379.974 321H368.295C366.609 321 365.16 320.416 363.949 319.248C362.781 318.037 362.197 316.545 362.197 314.772V251.384L339.294 315.161C338.689 316.761 337.629 318.145 336.115 319.313C334.601 320.438 333.001 321 331.314 321H322.036C320.349 321 318.749 320.438 317.235 319.313C315.765 318.145 314.705 316.761 314.056 315.161L291.218 251.384V314.772C291.218 316.545 290.613 318.037 289.402 319.248C288.234 320.416 286.807 321 285.12 321H273.441C271.754 321 270.306 320.416 269.094 319.248C267.883 318.037 267.278 316.545 267.278 314.772ZM498.641 318.21C498.641 320.07 497.538 321 495.332 321H479.761C478.118 321 476.301 320.416 474.311 319.248C472.365 318.037 470.873 316.588 469.835 314.901L458.805 297.643C454.264 290.55 448.77 287.003 442.326 287.003H426.495V314.901C426.495 316.588 425.89 318.037 424.678 319.248C423.511 320.416 422.083 321 420.396 321H408.199C406.512 321 405.063 320.416 403.852 319.248C402.641 318.037 402.035 316.588 402.035 314.901V234.126C402.035 232.439 402.619 230.99 403.787 229.779C404.955 228.568 406.382 227.963 408.069 227.963H461.595C471.5 227.963 479.61 230.623 485.925 235.943C492.283 241.263 495.462 248.443 495.462 257.483C495.462 270.069 487.309 277.963 471.003 281.164C473.598 282.115 475.998 283.759 478.204 286.095C480.41 288.387 482.94 291.739 485.795 296.151L497.603 314.901C498.295 316.112 498.641 317.215 498.641 318.21ZM426.495 268.642H454.134C458.589 268.642 462.503 267.755 465.877 265.982C469.294 264.209 471.003 261.376 471.003 257.483C471.003 253.59 469.294 250.757 465.877 248.984C462.503 247.21 458.589 246.323 454.134 246.323H426.495V268.642ZM506.819 315.031V234.126C506.819 232.439 507.424 230.99 508.635 229.779C509.846 228.568 511.295 227.963 512.982 227.963H525.05C526.823 227.963 528.294 228.568 529.462 229.779C530.673 230.99 531.278 232.439 531.278 234.126V314.901C531.278 316.588 530.651 318.037 529.397 319.248C528.186 320.416 526.737 321 525.05 321H512.982C511.295 321 509.846 320.438 508.635 319.313C507.424 318.145 506.819 316.718 506.819 315.031Z" fill="#1EA2D7"/>
<path d="M364.041 444.488L384.537 366.751C390.09 345.575 408.163 334.959 438.757 334.905H482.77C484.784 334.905 486.444 335.667 487.751 337.191C489.112 338.716 489.792 340.485 489.792 342.499V444.488C489.792 446.611 489.03 448.407 487.506 449.877C485.981 451.292 484.158 452 482.035 452H466.683C464.451 452 462.601 451.292 461.131 449.877C459.715 448.407 459.008 446.556 459.008 444.324V423.747H400.95L395.479 444.324C394.935 446.556 393.71 448.407 391.805 449.877C389.899 451.292 387.885 452 385.762 452H369.676C367.553 452 366.028 451.401 365.103 450.204C364.178 448.951 363.715 447.863 363.715 446.937C363.769 446.012 363.878 445.195 364.041 444.488ZM406.993 400.638H459.008V358.014H435.736C430.51 358.014 425.937 359.511 422.017 362.505C418.152 365.444 415.539 369.418 414.178 374.427L406.993 400.638ZM508.129 444.324V342.662C508.129 340.539 508.864 338.716 510.334 337.191C511.803 335.667 513.6 334.905 515.723 334.905H539.73C541.635 334.905 543.649 335.667 545.772 337.191C547.895 338.716 549.637 340.539 550.998 342.662L600.319 418.521V342.499C600.319 340.376 601.054 338.579 602.523 337.11C604.048 335.64 605.871 334.905 607.994 334.905H622.039C624.162 334.905 625.959 335.64 627.429 337.11C628.953 338.579 629.715 340.43 629.715 342.662V444.324C629.715 446.447 628.953 448.271 627.429 449.795C625.959 451.265 624.162 452 622.039 452H594.929C592.806 452 590.629 451.265 588.397 449.795C586.165 448.271 584.396 446.447 583.089 444.324L537.933 374.263V444.324C537.933 446.447 537.171 448.271 535.647 449.795C534.177 451.265 532.381 452 530.258 452H515.886C513.763 452 511.939 451.265 510.415 449.795C508.891 448.271 508.129 446.447 508.129 444.324ZM648.133 444.488V342.662C648.133 340.539 648.896 338.716 650.42 337.191C651.944 335.667 653.768 334.905 655.891 334.905H671.079C673.311 334.905 675.162 335.667 676.631 337.191C678.156 338.716 678.918 340.539 678.918 342.662V444.324C678.918 446.447 678.128 448.271 676.55 449.795C675.026 451.265 673.202 452 671.079 452H655.891C653.768 452 651.944 451.292 650.42 449.877C648.896 448.407 648.133 446.611 648.133 444.488ZM697.336 444.161V342.826C697.336 340.594 698.071 338.716 699.541 337.191C701.011 335.667 702.807 334.905 704.93 334.905H738.164C740.287 334.905 742.302 335.667 744.207 337.191C746.112 338.716 747.391 340.539 748.045 342.662L772.133 412.397L796.222 342.662C796.875 340.539 798.154 338.716 800.06 337.191C801.965 335.667 803.979 334.905 806.102 334.905H839.336C841.46 334.905 843.229 335.667 844.644 337.191C846.114 338.716 846.849 340.594 846.849 342.826V444.161C846.849 446.393 846.087 448.271 844.562 449.795C843.093 451.265 841.296 452 839.173 452H824.475C822.352 452 820.528 451.265 819.004 449.795C817.534 448.271 816.799 446.393 816.799 444.161V364.383L787.975 444.651C787.213 446.665 785.879 448.407 783.973 449.877C782.068 451.292 780.054 452 777.931 452H766.254C764.131 452 762.117 451.292 760.212 449.877C758.361 448.407 757.027 446.665 756.21 444.651L727.467 364.383V444.161C727.467 446.393 726.705 448.271 725.181 449.795C723.711 451.265 721.915 452 719.792 452H705.094C702.97 452 701.147 451.265 699.623 449.795C698.098 448.271 697.336 446.393 697.336 444.161ZM855.632 444.488L876.128 366.751C881.68 345.575 899.753 334.959 930.347 334.905H974.36C976.374 334.905 978.035 335.667 979.341 337.191C980.702 338.716 981.382 340.485 981.382 342.499V444.488C981.382 446.611 980.62 448.407 979.096 449.877C977.572 451.292 975.748 452 973.625 452H958.274C956.042 452 954.191 451.292 952.721 449.877C951.306 448.407 950.598 446.556 950.598 444.324V423.747H892.54L887.069 444.324C886.525 446.556 885.3 448.407 883.395 449.877C881.49 451.292 879.475 452 877.352 452H861.266C859.143 452 857.619 451.401 856.693 450.204C855.768 448.951 855.305 447.863 855.305 446.937C855.36 446.012 855.468 445.195 855.632 444.488ZM898.583 400.638H950.598V358.014H927.326C922.1 358.014 917.527 359.511 913.608 362.505C909.743 365.444 907.13 369.418 905.769 374.427L898.583 400.638ZM999.719 444.488V342.826C999.719 340.594 1000.48 338.716 1002.01 337.191C1003.53 335.667 1005.35 334.905 1007.48 334.905H1022.83C1024.95 334.905 1026.75 335.667 1028.22 337.191C1029.74 338.716 1030.5 340.594 1030.5 342.826V428.891H1101.63C1103.75 428.891 1105.55 429.653 1107.02 431.178C1108.54 432.702 1109.3 434.526 1109.3 436.649V444.324C1109.3 446.447 1108.54 448.271 1107.02 449.795C1105.55 451.265 1103.75 452 1101.63 452H1007.48C1005.35 452 1003.53 451.292 1002.01 449.877C1000.48 448.407 999.719 446.611 999.719 444.488Z" fill="#1EA2D7"/>
</g>
<defs>
<clipPath id="clip0_animals_logo">
<rect width="1084" height="520" fill="white"/>
</clipPath>
</defs>
</svg>
