<svg width="304" height="152" viewBox="0 0 304 152" fill="none" xmlns="http://www.w3.org/2000/svg">
<g opacity="0.7" filter="url(#filter0_d_364_483)">
<path d="M94.7315 121.819L100.817 97.8931C102.446 91.4299 107.741 88.1899 116.702 88.1732H128.682C129.241 88.1732 129.716 88.4143 130.108 88.896C130.499 89.3781 130.695 89.9263 130.695 90.5409V121.57C130.695 122.218 130.483 122.77 130.06 123.227C129.636 123.684 129.113 123.912 128.49 123.912H123.914C123.291 123.912 122.76 123.684 122.321 123.227C121.881 122.77 121.662 122.218 121.662 121.57V95.2263H115.816C114.282 95.2263 112.944 95.6792 111.803 96.5846C110.66 97.4904 109.89 98.7073 109.491 100.236L104.004 121.57C103.844 122.251 103.485 122.812 102.926 123.252C102.366 123.692 101.776 123.912 101.153 123.912H96.2889C95.7296 123.912 95.3185 123.73 95.055 123.364C94.7914 122.999 94.6634 122.691 94.6716 122.442C94.6795 122.193 94.6993 121.985 94.7315 121.819Z" fill="#1EA2D7"/>
<path d="M137.948 121.57V90.5409C137.948 89.8598 138.164 89.2947 138.595 88.8461C139.026 88.3975 139.569 88.1732 140.224 88.1732H144.441C145.064 88.1732 145.595 88.3975 146.034 88.8461C146.473 89.2947 146.693 89.843 146.693 90.491V115.439L160.326 90.5409C160.693 89.8929 161.197 89.3364 161.836 88.871C162.474 88.4061 163.065 88.1732 163.609 88.1732H170.677C171.3 88.1732 171.827 88.4061 172.258 88.871C172.689 89.3364 172.905 89.8929 172.905 90.5409V121.57C172.905 122.218 172.681 122.77 172.234 123.227C171.787 123.684 171.252 123.912 170.629 123.912H166.412C165.789 123.912 165.258 123.684 164.819 123.227C164.379 122.77 164.16 122.218 164.16 121.57V98.4414L151.653 121.57C151.285 122.218 150.766 122.77 150.095 123.227C149.425 123.684 148.778 123.912 148.155 123.912H140.224C139.601 123.912 139.066 123.684 138.619 123.227C138.171 122.77 137.948 122.218 137.948 121.57Z" fill="#1EA2D7"/>
<path d="M177.454 121.57V119.177C177.454 118.529 177.673 117.981 178.112 117.532C178.552 117.084 179.083 116.859 179.706 116.859H181.575L186.031 97.9927C187.58 91.4466 192.772 88.1732 201.605 88.1732H214.543C215.166 88.1732 215.697 88.3975 216.136 88.8461C216.575 89.2947 216.795 89.843 216.795 90.491V121.619C216.795 122.267 216.575 122.812 216.136 123.252C215.697 123.692 215.166 123.912 214.543 123.912H179.706C179.083 123.912 178.552 123.684 178.112 123.227C177.673 122.77 177.454 122.218 177.454 121.57ZM190.799 116.859H207.786V95.2263H200.622C199.105 95.2263 197.851 95.6586 196.861 96.5223C195.87 97.3864 195.191 98.5909 194.824 100.136L190.799 116.859Z" fill="#1EA2D7"/>
<path d="M224.072 121.52V90.491C224.072 89.843 224.296 89.2947 224.743 88.8461C225.19 88.3975 225.725 88.1732 226.348 88.1732H253.974C254.597 88.1732 255.128 88.4061 255.567 88.871C256.006 89.3364 256.226 89.8929 256.226 90.5409V92.8836C256.226 93.5316 256.006 94.0842 255.567 94.541C255.128 94.9981 254.597 95.2263 253.974 95.2263H233.105V102.479H251.075C251.698 102.479 252.228 102.707 252.668 103.164C253.107 103.621 253.327 104.174 253.327 104.822V107.164C253.327 107.812 253.107 108.365 252.668 108.822C252.228 109.279 251.698 109.507 251.075 109.507H233.105V116.859H253.926C254.533 116.859 255.052 117.084 255.483 117.532C255.914 117.981 256.13 118.529 256.13 119.177V121.57C256.13 122.218 255.906 122.77 255.459 123.227C255.012 123.684 254.477 123.912 253.854 123.912H226.348C225.725 123.912 225.19 123.684 224.743 123.227C224.296 122.77 224.072 122.201 224.072 121.52Z" fill="#1EA2D7"/>
<path d="M260.995 121.57V90.5409C260.995 89.8929 261.211 89.3364 261.642 88.871C262.073 88.4061 262.6 88.1732 263.223 88.1732H281.505C291.168 88.1732 296 92.8049 296 102.068C296 111.331 291.168 115.962 281.505 115.962H270.028V121.57C270.028 122.218 269.808 122.77 269.369 123.227C268.93 123.684 268.399 123.912 267.776 123.912H263.271C262.648 123.912 262.113 123.684 261.666 123.227C261.219 122.77 260.995 122.218 260.995 121.57ZM270.028 108.909H278.773C281.457 108.909 283.493 108.44 284.883 107.501C286.272 106.562 286.967 104.751 286.967 102.068C286.967 99.3845 286.272 97.5733 284.883 96.6345C283.493 95.696 281.457 95.2263 278.773 95.2263H270.028V108.909Z" fill="#1EA2D7"/>
<path d="M62.2177 84.2635V60.2329C62.2177 59.7037 62.3852 59.2583 62.7203 58.8968C63.0554 58.5355 63.4649 58.3546 63.9489 58.3546H71.5255C72.0095 58.3546 72.4685 58.5355 72.903 58.8968C73.3373 59.2583 73.629 59.6907 73.7779 60.1941L79.2695 76.7309L84.7611 60.1941C84.9101 59.6907 85.2015 59.2583 85.6361 58.8968C86.0703 58.5355 86.5296 58.3546 87.0136 58.3546H94.5901C95.0742 58.3546 95.4805 58.5355 95.8095 58.8968C96.1381 59.2583 96.3028 59.7037 96.3028 60.2329V84.2635C96.3028 84.793 96.132 85.235 95.7908 85.5899C95.4494 85.9451 95.0369 86.1225 94.5529 86.1225H91.2021C90.7181 86.1225 90.3054 85.9451 89.9642 85.5899C89.6227 85.235 89.4523 84.793 89.4523 84.2635V65.3449L82.881 84.3797C82.707 84.8575 82.4031 85.2674 81.9688 85.6094C81.5342 85.9515 81.0752 86.1225 80.5912 86.1225H77.9292C77.4452 86.1225 76.9891 85.9515 76.561 85.6094C76.1328 85.2674 75.8257 84.8575 75.6395 84.3797L69.0868 65.3449V84.2635C69.0868 84.793 68.9161 85.235 68.5749 85.5899C68.2334 85.9451 67.821 86.1225 67.337 86.1225H63.9862C63.5021 86.1225 63.0862 85.9451 62.7389 85.5899C62.3913 85.235 62.2177 84.793 62.2177 84.2635Z" fill="#1EA2D7"/>
<path d="M101.645 84.3023V60.1941C101.645 59.6907 101.813 59.2583 102.148 58.8968C102.483 58.5355 102.893 58.3546 103.377 58.3546H117.58C125.089 58.3546 128.843 61.9532 128.843 69.15C128.843 76.347 125.089 79.9454 117.58 79.9454H108.664V84.3023C108.664 84.8057 108.493 85.235 108.152 85.5899C107.81 85.9451 107.398 86.1225 106.914 86.1225H103.414C102.93 86.1225 102.514 85.9451 102.167 85.5899C101.819 85.235 101.645 84.8057 101.645 84.3023ZM108.664 74.4654H115.458C117.543 74.4654 119.125 74.1008 120.205 73.3713C121.285 72.6421 121.825 71.2349 121.825 69.15C121.825 67.0653 121.285 65.6581 120.205 64.9287C119.125 64.1994 117.543 63.8346 115.458 63.8346H108.664V74.4654Z" fill="#1EA2D7"/>
<path d="M129.978 62.0143V60.1941C129.978 59.665 130.146 59.2259 130.481 58.8774C130.816 58.5288 131.238 58.3546 131.747 58.3546H155.37C155.879 58.3546 156.301 58.5288 156.636 58.8774C156.971 59.2259 157.139 59.665 157.139 60.1941V62.0143C157.139 62.5438 156.971 62.9795 156.636 63.3214C156.301 63.6636 155.879 63.8346 155.37 63.8346H147.067V84.341C147.067 84.8444 146.897 85.2674 146.555 85.6094C146.214 85.9515 145.802 86.1225 145.318 86.1225H141.799C141.315 86.1225 140.902 85.9515 140.561 85.6094C140.22 85.2674 140.049 84.8444 140.049 84.341V63.8346H131.747C131.238 63.8346 130.816 63.6636 130.481 63.3214C130.146 62.9795 129.978 62.5438 129.978 62.0143Z" fill="#1EA2D7"/>
<path d="M77.9247 102.893C75.2463 103.677 72.3407 104.244 69.2173 104.578C52.6097 106.353 37.8433 89.9096 37.8433 72C37.8433 57.607 49.0522 44.1898 62.3681 39.4747L59.3735 33.4048C43.6894 39.6423 30.3434 55.1675 30.6874 72C31.1299 93.7065 49.6499 113.501 69.8945 112.417C73.5458 112.222 77.066 111.541 80.389 110.435L77.9247 102.893Z" fill="#ABD03B"/>
<path d="M17.0972 71.676C17.0972 101.5 41.1554 126.228 69.2173 124.802C73.8765 124.565 78.3637 123.757 82.6067 122.436L80.8724 115.45C77.0732 116.669 73.096 117.46 69.043 117.777C44.5782 119.694 24.7041 97.6297 24.229 71.8536C23.7516 46.0301 42.1127 25.4883 67.9702 25.4921C78.164 25.4946 86.596 28.5508 93.2648 33.7726L97.3106 27.3799C88.9376 21.2786 78.4936 17.6494 66.6472 17.4855C38.5528 17.0977 17.0972 41.8504 17.0972 71.676Z" fill="#ABD03B"/>
<path d="M69.2173 0C30.9904 0 0 32.2351 0 72C0 111.765 30.9904 144 69.2173 144C76.2482 144 83.0336 142.91 89.4258 140.884L86.994 131.454C81.9813 133.13 76.7365 134.178 71.3774 134.519C41.4356 136.42 9.07897 107.246 9.07897 73.8853C9.07897 42.1932 33.6063 14.348 66.4067 10.9489C87.7758 8.73464 108.287 21.2636 120.036 39.3459L127.321 32.8568C114.984 13.0807 93.569 0 69.2173 0Z" fill="#ABD03B"/>
</g>
<defs>
<filter id="filter0_d_364_483" x="0" y="0" width="304" height="152" filterUnits="userSpaceOnUse" color-interpolation-filters="sRGB">
<feFlood flood-opacity="0" result="BackgroundImageFix"/>
<feColorMatrix in="SourceAlpha" type="matrix" values="0 0 0 0 0 0 0 0 0 0 0 0 0 0 0 0 0 0 127 0" result="hardAlpha"/>
<feOffset dx="4" dy="4"/>
<feGaussianBlur stdDeviation="2"/>
<feComposite in2="hardAlpha" operator="out"/>
<feColorMatrix type="matrix" values="0 0 0 0 0.25098 0 0 0 0 0.25098 0 0 0 0 0.25098 0 0 0 0.5 0"/>
<feBlend mode="normal" in2="BackgroundImageFix" result="effect1_dropShadow_364_483"/>
<feBlend mode="normal" in="SourceGraphic" in2="effect1_dropShadow_364_483" result="shape"/>
</filter>
</defs>
</svg>
