<svg width="20" height="22" viewBox="0 0 20 22" fill="none" xmlns="http://www.w3.org/2000/svg">
<path d="M9.16699 12.6211H10.833C13.2518 12.6211 15.5717 13.5278 17.2812 15.1396C18.9903 16.7512 19.9501 18.9362 19.9502 21.2139C19.9502 21.408 19.8682 21.5952 19.7217 21.7334C19.575 21.8717 19.3755 21.9501 19.167 21.9502H0.833008C0.624454 21.9501 0.424952 21.8717 0.27832 21.7334C0.13176 21.5952 0.0498047 21.408 0.0498047 21.2139C0.0499225 18.9362 1.0097 16.7512 2.71875 15.1396C4.42826 13.5278 6.74818 12.6211 9.16699 12.6211ZM9.16699 14.0928C7.31137 14.0936 5.52027 14.739 4.13672 15.9062C2.75308 17.0737 1.87345 18.6817 1.66699 20.4229L1.66016 20.4785H18.3398L18.333 20.4229C18.1265 18.6817 17.2469 17.0737 15.8633 15.9062C14.4797 14.739 12.6886 14.0936 10.833 14.0928H9.16699ZM7.78613 0.464844C8.84317 0.0521044 10.0066 -0.0552077 11.1289 0.155273C12.2513 0.365798 13.2822 0.885064 14.0908 1.64746C14.8993 2.40983 15.449 3.38099 15.6719 4.4375C15.8948 5.49408 15.7811 6.58949 15.3438 7.58496C14.9064 8.58042 14.1649 9.43208 13.2139 10.0312C12.2628 10.6303 11.1443 10.9502 10 10.9502C8.46525 10.9502 6.99357 10.375 5.90918 9.35254C4.82505 8.33023 4.2168 6.94433 4.2168 5.5C4.2168 4.42289 4.55546 3.36976 5.19043 2.47363C5.82557 1.5774 6.72902 0.877693 7.78613 0.464844ZM10 1.52148C8.88265 1.52148 7.81049 1.93985 7.01953 2.68555C6.22846 3.43142 5.7832 4.44384 5.7832 5.5C5.7832 6.28757 6.03141 7.05759 6.49512 7.71191C6.95878 8.36599 7.61772 8.87507 8.3877 9.17578C9.15776 9.47647 10.005 9.55563 10.8223 9.40234C11.6395 9.24904 12.3906 8.87052 12.9805 8.31445C13.5704 7.75825 13.9728 7.04871 14.1357 6.27637C14.2986 5.50418 14.2149 4.70375 13.8955 3.97656C13.576 3.24935 13.035 2.62821 12.3418 2.19141C11.6485 1.75461 10.8333 1.52148 10 1.52148Z" fill="white" stroke="#6180A1" stroke-width="0.1"/>
</svg>
