<svg width="22" height="22" viewBox="0 0 22 22" fill="none" xmlns="http://www.w3.org/2000/svg">
<path d="M8.71973 0.0996094C13.4769 0.0996094 17.334 3.96246 17.334 8.72559C17.334 10.4286 16.8364 12.0127 15.9883 13.3486L15.7021 13.7559L15.6533 13.8242L15.7129 13.8838L21.8594 20.0352L20.0674 21.8574L13.918 15.707L13.8594 15.6484L13.79 15.6963L13.3975 15.9688C12.0495 16.8409 10.4413 17.3506 8.71387 17.3506C3.95684 17.3505 0.0996449 13.4886 0.0996094 8.72559C0.0996094 3.96252 3.95684 0.0996444 8.71973 0.0996094ZM8.73145 1.7334C6.86594 1.7334 5.11029 2.46009 3.79102 3.7793C2.47174 5.09857 1.74513 6.85419 1.74512 8.71973C1.74512 10.5853 2.47173 12.3409 3.79102 13.6602C5.1103 14.9794 6.86591 15.7061 8.73145 15.7061C10.5969 15.706 12.3526 14.9794 13.6719 13.6602C14.9911 12.3409 15.7178 10.5852 15.7178 8.71973C15.7178 6.85422 14.9911 5.09856 13.6719 3.7793C12.3526 2.46006 10.5969 1.73345 8.73145 1.7334Z" fill="white" stroke="#6180A1" stroke-width="0.2"/>
</svg>
