<svg width="24" height="26" viewBox="0 0 24 26" fill="none" xmlns="http://www.w3.org/2000/svg">
<path fill-rule="evenodd" clip-rule="evenodd" d="M12.0578 1.00014C14.6349 1.01281 17.1256 1.87114 19.095 3.42495C21.0643 4.97876 22.388 7.12951 22.8342 9.5021C23.2804 11.8747 22.8208 14.3189 21.5364 16.4074C20.3691 18.3053 18.5863 19.7973 16.4563 20.6798L16.7239 22.0119C17.0341 23.5591 15.8508 25.0031 14.2727 25.0031H9.72679C8.14892 25.0028 6.96546 23.559 7.27562 22.0119L7.54222 20.6798C5.37591 19.782 3.57104 18.254 2.40648 16.3136C1.14558 14.2126 0.713915 11.7638 1.18675 9.39565C1.65962 7.02761 3.00765 4.88996 4.99437 3.35561C6.98107 1.82138 9.48088 0.9875 12.0578 1.00014ZM11.2815 13.2521C10.567 13.2523 9.9513 13.7566 9.81077 14.4572L8.25608 22.2081C8.06995 23.1364 8.78014 24.0028 9.72679 24.0031H14.2727C15.2196 24.0031 15.9296 23.1366 15.7434 22.2081L14.1887 14.4572C14.0481 13.7565 13.4327 13.2521 12.718 13.2521H11.2815ZM12.053 2.00014C9.69236 1.98856 7.41007 2.75236 5.60472 4.14663C3.80074 5.53988 2.59081 7.47047 2.16722 9.59194C1.74397 11.7122 2.12897 13.9079 3.2639 15.799C4.28099 17.4936 5.84787 18.8508 7.74339 19.6789L8.14378 17.6808C6.78364 16.9645 5.6781 15.8825 4.97483 14.5695C4.17431 13.0745 3.94369 11.3688 4.32054 9.73452C4.69746 8.10016 5.65965 6.63516 7.04808 5.5812C8.43645 4.52739 10.1679 3.94711 11.9563 3.93764C13.7448 3.92834 15.484 4.49017 16.885 5.52944C18.2858 6.56878 19.2659 8.02424 19.6623 9.65444C20.0587 11.2846 19.8482 12.993 19.0657 14.4962C18.3651 15.8417 17.2419 16.9487 15.8547 17.6789L16.2561 19.6808C18.1189 18.8672 19.6656 17.54 20.6848 15.883C21.8411 14.0027 22.2502 11.8107 21.8508 9.68667C21.4511 7.56163 20.2634 5.62057 18.4758 4.2101C16.6866 2.79849 14.4136 2.01175 12.053 2.00014ZM11.9602 4.55874C10.3231 4.56737 8.73795 5.09896 7.46702 6.06362C6.19613 7.02839 5.31498 8.36935 4.96995 9.86538C4.62496 11.3615 4.8366 12.9235 5.56956 14.2921C6.17911 15.43 7.11968 16.3763 8.27464 17.0304L8.8303 14.2609C9.06454 13.0931 10.0905 12.2523 11.2815 12.2521H12.718C13.9091 12.2521 14.9349 13.093 15.1692 14.2609L15.7248 17.0314C16.9044 16.3637 17.8601 15.3915 18.468 14.2238C19.1842 12.8478 19.3767 11.2843 19.0139 9.79213C18.651 8.29985 17.7542 6.96716 16.4719 6.01577C15.1895 5.06444 13.5973 4.55023 11.9602 4.55874Z" fill="white" stroke="white" stroke-width="0.2"/>
</svg>
