<svg width="54" height="54" viewBox="0 0 54 54" fill="none" xmlns="http://www.w3.org/2000/svg">
<path d="M53.5498 3.27215C52.9492 2.67182 52.0483 2.67182 51.4478 3.27215L26.8244 27.7356L17.2153 17.0798C16.6147 16.4794 15.7139 16.4794 15.1133 16.9297C14.5127 17.53 14.5127 18.4305 14.9632 19.0308C16.1643 20.3816 17.3654 21.7323 18.5666 22.933C20.5184 25.0341 22.4703 27.1353 24.272 29.2364C24.5723 29.5366 24.8726 29.8368 25.0227 30.1369C25.4731 30.5872 25.9236 31.3376 26.6743 31.3376C27.1247 31.3376 27.425 31.1875 27.7253 30.8874L53.5498 5.37331C54.1503 4.77297 54.1503 3.87248 53.5498 3.27215Z" fill="#404040"/>
<path d="M26.8242 54C24.1216 54 21.2689 53.5498 18.5664 52.6493C11.6598 50.398 6.10455 45.7455 2.95156 39.2919C-3.80485 26.0846 1.45014 9.72562 14.5125 2.9719C21.4191 -0.630086 29.5268 -0.930251 36.7336 1.92132C38.0849 2.37157 39.286 3.12198 40.4872 3.72231C41.2379 4.17256 41.388 5.07305 40.9376 5.82347C40.4872 6.57388 39.5863 6.72396 38.8356 6.27372C37.7846 5.67338 36.7336 5.07306 35.5325 4.62281C29.0763 2.0714 22.0197 2.37157 15.8638 5.5233C4.1527 11.5266 -0.501714 26.0846 5.50398 37.7911C8.35669 43.4942 13.3114 47.6965 19.4672 49.6476C25.4729 51.5987 31.9291 50.9983 37.4843 48.1468C47.9943 42.7438 52.949 30.1369 49.0453 18.8807C48.745 18.1302 49.1954 17.2297 49.9461 16.9296C50.6969 16.6294 51.5977 17.0797 51.898 17.8301C56.2521 30.437 50.6969 44.6949 38.8356 50.6982C35.082 52.9494 31.0282 54 26.8242 54Z" fill="#404040"/>
</svg>
