<svg width="56" height="56" viewBox="0 0 56 56" fill="none" xmlns="http://www.w3.org/2000/svg">
<path d="M28.5 0.5V16C28.5 16.5177 28.1067 16.9439 27.6025 16.9951L27.5 17C26.9481 16.9998 26.5 16.5524 26.5 16V2.54492C21.137 2.86087 15.9958 4.86381 11.8232 8.28809C7.26294 12.0307 4.14117 17.2392 2.99023 23.0254C1.83937 28.8114 2.73085 34.8177 5.51172 40.0205C8.29265 45.223 12.7912 49.3009 18.2412 51.5586C23.6917 53.8163 29.7579 54.1148 35.4033 52.4023C41.0482 50.6898 45.9247 47.0726 49.2021 42.168C52.4798 37.2627 53.9562 31.3712 53.3779 25.5C52.8176 19.8125 50.3632 14.4833 46.418 10.3633V10.3623L46.0283 9.96484L46.0127 9.9502L45.999 9.93359L45.9346 9.85547L45.918 9.83496L45.9033 9.8125C45.6466 9.42357 45.69 8.89618 46.0312 8.55469L46.0977 8.49414C46.3932 8.24681 46.7978 8.19702 47.1377 8.34473L47.2891 8.42676L47.3115 8.44141L47.332 8.45801L47.4102 8.52246L47.4307 8.53906L47.4492 8.55859L47.8584 8.97656L47.8623 8.98047C52.1172 13.4238 54.764 19.1709 55.3682 25.3047C55.9917 31.6359 54.4005 37.9875 50.8662 43.2773C47.3316 48.5672 42.0715 52.4685 35.9834 54.3154C29.8952 56.1622 23.3544 55.8409 17.4766 53.4062C11.5988 50.9715 6.74715 46.5738 3.74805 40.9629C0.748995 35.352 -0.21288 28.8747 1.02832 22.6348C2.26953 16.395 5.63594 10.7783 10.5537 6.74219C15.4717 2.70608 21.6379 0.500085 28 0.5H28.5ZM40.293 11.293C40.6835 10.9024 41.3166 10.9027 41.707 11.293C42.0976 11.6835 42.0976 12.3165 41.707 12.707L27.707 26.707C27.341 27.0729 26.7619 27.0958 26.3691 26.7754L26.293 26.707C25.9027 26.3165 25.9027 25.6835 26.293 25.293L40.293 11.293Z" fill="#404040" stroke="#404040"/>
</svg>
