<svg width="54" height="54" viewBox="0 0 54 54" fill="none" xmlns="http://www.w3.org/2000/svg">
<mask id="path-1-outside-1_365_102" maskUnits="userSpaceOnUse" x="-0.25" y="-0.254639" width="54" height="54" fill="black">
<rect fill="white" x="-0.25" y="-0.254639" width="54" height="54"/>
<path d="M53.25 52.375C53.25 52.6071 53.1578 52.8296 52.9937 52.9937C52.8296 53.1578 52.6071 53.25 52.375 53.25H1.625C1.39294 53.25 1.17038 53.1578 1.00628 52.9937C0.842187 52.8296 0.75 52.6071 0.75 52.375C0.75 52.1429 0.842187 51.9204 1.00628 51.7563C1.17038 51.5922 1.39294 51.5 1.625 51.5H20.875V44.3906C20.875 43.4624 21.2437 42.5721 21.9001 41.9157C22.5565 41.2594 23.4467 40.8906 24.375 40.8906H29.625C30.5533 40.8906 31.4435 41.2594 32.0999 41.9157C32.7562 42.5721 33.125 43.4624 33.125 44.3906V48.1094C33.125 48.3414 33.0328 48.564 32.8687 48.7281C32.7046 48.8922 32.4821 48.9844 32.25 48.9844C32.0179 48.9844 31.7954 48.8922 31.6313 48.7281C31.4672 48.564 31.375 48.3414 31.375 48.1094V44.3906C31.375 43.9265 31.1906 43.4814 30.8624 43.1532C30.5343 42.825 30.0891 42.6406 29.625 42.6406H24.375C23.9109 42.6406 23.4658 42.825 23.1376 43.1532C22.8094 43.4814 22.625 43.9265 22.625 44.3906V51.5H43.625V12.2344C43.625 11.5382 43.3484 10.8705 42.8562 10.3782C42.3639 9.88593 41.6962 9.60937 41 9.60937H38.2656C38.0336 9.60937 37.811 9.51718 37.6469 9.35309C37.4828 9.18899 37.3906 8.96643 37.3906 8.73437C37.3906 8.50231 37.4828 8.27975 37.6469 8.11565C37.811 7.95156 38.0336 7.85937 38.2656 7.85937H41C42.1603 7.85937 43.2731 8.32031 44.0936 9.14078C44.9141 9.96125 45.375 11.074 45.375 12.2344V51.5H52.375C52.6071 51.5 52.8296 51.5922 52.9937 51.7563C53.1578 51.9204 53.25 52.1429 53.25 52.375ZM9.5 48C9.73206 48 9.95462 47.9078 10.1187 47.7437C10.2828 47.5796 10.375 47.3571 10.375 47.125V12.2344C10.375 11.5382 10.6516 10.8705 11.1438 10.3782C11.6361 9.88593 12.3038 9.60937 13 9.60937H19.0648C19.2826 11.5625 20.212 13.367 21.6757 14.6783C23.1394 15.9897 25.0348 16.7161 27 16.7187C27.2321 16.7187 27.4546 16.6266 27.6187 16.4625C27.7828 16.2984 27.875 16.0758 27.875 15.8437C27.875 15.6117 27.7828 15.3891 27.6187 15.225C27.4546 15.0609 27.2321 14.9687 27 14.9687C25.546 14.9697 24.1374 14.4623 23.0178 13.5345C21.8983 12.6066 21.1383 11.3167 20.8693 9.88773C20.6003 8.4588 20.8393 6.98079 21.5448 5.70939C22.2503 4.43799 23.378 3.45318 24.7328 2.92532C26.0877 2.39747 27.5844 2.35977 28.9641 2.81876C30.3438 3.27774 31.5196 4.20454 32.2882 5.43881C33.0568 6.67308 33.3699 8.1372 33.1731 9.57786C32.9764 11.0185 32.2823 12.3451 31.2109 13.3281C31.1262 13.4058 31.0576 13.4993 31.009 13.6035C30.9604 13.7076 30.9328 13.8203 30.9278 13.9352C30.9228 14.05 30.9404 14.1647 30.9797 14.2727C31.019 14.3807 31.0792 14.4799 31.1568 14.5646C31.2344 14.6493 31.328 14.718 31.4322 14.7666C31.5363 14.8151 31.649 14.8427 31.7638 14.8478C31.8786 14.8528 31.9933 14.8351 32.1013 14.7959C32.2093 14.7566 32.3085 14.6964 32.3933 14.6187C33.3455 13.7469 34.0721 12.6572 34.5108 11.443C34.9496 10.2288 35.0873 8.92634 34.9123 7.64723C34.7373 6.36812 34.2547 5.15052 33.5059 4.09882C32.7571 3.04712 31.7644 2.19268 30.613 1.60875C29.4615 1.02481 28.1857 0.728796 26.8948 0.746077C25.6038 0.763357 24.3364 1.09342 23.201 1.70797C22.0656 2.32251 21.0962 3.20322 20.3758 4.27459C19.6554 5.34595 19.2056 6.57603 19.0648 7.85937H13C11.8397 7.85937 10.7269 8.32031 9.90641 9.14078C9.08594 9.96125 8.625 11.074 8.625 12.2344V47.125C8.625 47.3571 8.71719 47.5796 8.88128 47.7437C9.04538 47.9078 9.26794 48 9.5 48ZM30.5 8.73437C30.5 8.50231 30.4078 8.27975 30.2437 8.11565C30.0796 7.95156 29.8571 7.85937 29.625 7.85937H27.875V6.10937C27.875 5.87731 27.7828 5.65475 27.6187 5.49065C27.4546 5.32656 27.2321 5.23437 27 5.23437C26.7679 5.23437 26.5454 5.32656 26.3813 5.49065C26.2172 5.65475 26.125 5.87731 26.125 6.10937V7.85937H24.375C24.1429 7.85937 23.9204 7.95156 23.7563 8.11565C23.5922 8.27975 23.5 8.50231 23.5 8.73437C23.5 8.96643 23.5922 9.18899 23.7563 9.35309C23.9204 9.51718 24.1429 9.60937 24.375 9.60937H26.125V11.3594C26.125 11.5914 26.2172 11.814 26.3813 11.9781C26.5454 12.1422 26.7679 12.2344 27 12.2344C27.2321 12.2344 27.4546 12.1422 27.6187 11.9781C27.7828 11.814 27.875 11.5914 27.875 11.3594V9.60937H29.625C29.8571 9.60937 30.0796 9.51718 30.2437 9.35309C30.4078 9.18899 30.5 8.96643 30.5 8.73437ZM28.0938 22.625H25.9062C25.6742 22.625 25.4516 22.7172 25.2875 22.8813C25.1234 23.0454 25.0312 23.2679 25.0312 23.5C25.0312 23.7321 25.1234 23.9546 25.2875 24.1187C25.4516 24.2828 25.6742 24.375 25.9062 24.375H28.0938C28.3258 24.375 28.5484 24.2828 28.7125 24.1187C28.8766 23.9546 28.9688 23.7321 28.9688 23.5C28.9688 23.2679 28.8766 23.0454 28.7125 22.8813C28.5484 22.7172 28.3258 22.625 28.0938 22.625ZM28.0938 31.375H25.9062C25.6742 31.375 25.4516 31.4672 25.2875 31.6313C25.1234 31.7954 25.0312 32.0179 25.0312 32.25C25.0312 32.4821 25.1234 32.7046 25.2875 32.8687C25.4516 33.0328 25.6742 33.125 25.9062 33.125H28.0938C28.3258 33.125 28.5484 33.0328 28.7125 32.8687C28.8766 32.7046 28.9688 32.4821 28.9688 32.25C28.9688 32.0179 28.8766 31.7954 28.7125 31.6313C28.5484 31.4672 28.3258 31.375 28.0938 31.375ZM19.3438 22.625H17.1562C16.9242 22.625 16.7016 22.7172 16.5375 22.8813C16.3734 23.0454 16.2812 23.2679 16.2812 23.5C16.2812 23.7321 16.3734 23.9546 16.5375 24.1187C16.7016 24.2828 16.9242 24.375 17.1562 24.375H19.3438C19.5758 24.375 19.7984 24.2828 19.9625 24.1187C20.1266 23.9546 20.2188 23.7321 20.2188 23.5C20.2188 23.2679 20.1266 23.0454 19.9625 22.8813C19.7984 22.7172 19.5758 22.625 19.3438 22.625ZM19.3438 31.375H17.1562C16.9242 31.375 16.7016 31.4672 16.5375 31.6313C16.3734 31.7954 16.2812 32.0179 16.2812 32.25C16.2812 32.4821 16.3734 32.7046 16.5375 32.8687C16.7016 33.0328 16.9242 33.125 17.1562 33.125H19.3438C19.5758 33.125 19.7984 33.0328 19.9625 32.8687C20.1266 32.7046 20.2188 32.4821 20.2188 32.25C20.2188 32.0179 20.1266 31.7954 19.9625 31.6313C19.7984 31.4672 19.5758 31.375 19.3438 31.375ZM36.8438 22.625H34.6562C34.4242 22.625 34.2016 22.7172 34.0375 22.8813C33.8734 23.0454 33.7812 23.2679 33.7812 23.5C33.7812 23.7321 33.8734 23.9546 34.0375 24.1187C34.2016 24.2828 34.4242 24.375 34.6562 24.375H36.8438C37.0758 24.375 37.2984 24.2828 37.4625 24.1187C37.6266 23.9546 37.7188 23.7321 37.7188 23.5C37.7188 23.2679 37.6266 23.0454 37.4625 22.8813C37.2984 22.7172 37.0758 22.625 36.8438 22.625ZM36.8438 31.375H34.6562C34.4242 31.375 34.2016 31.4672 34.0375 31.6313C33.8734 31.7954 33.7812 32.0179 33.7812 32.25C33.7812 32.4821 33.8734 32.7046 34.0375 32.8687C34.2016 33.0328 34.4242 33.125 34.6562 33.125H36.8438C37.0758 33.125 37.2984 33.0328 37.4625 32.8687C37.6266 32.7046 37.7188 32.4821 37.7188 32.25C37.7188 32.0179 37.6266 31.7954 37.4625 31.6313C37.2984 31.4672 37.0758 31.375 36.8438 31.375Z"/>
</mask>
<path d="M53.25 52.375C53.25 52.6071 53.1578 52.8296 52.9937 52.9937C52.8296 53.1578 52.6071 53.25 52.375 53.25H1.625C1.39294 53.25 1.17038 53.1578 1.00628 52.9937C0.842187 52.8296 0.75 52.6071 0.75 52.375C0.75 52.1429 0.842187 51.9204 1.00628 51.7563C1.17038 51.5922 1.39294 51.5 1.625 51.5H20.875V44.3906C20.875 43.4624 21.2437 42.5721 21.9001 41.9157C22.5565 41.2594 23.4467 40.8906 24.375 40.8906H29.625C30.5533 40.8906 31.4435 41.2594 32.0999 41.9157C32.7562 42.5721 33.125 43.4624 33.125 44.3906V48.1094C33.125 48.3414 33.0328 48.564 32.8687 48.7281C32.7046 48.8922 32.4821 48.9844 32.25 48.9844C32.0179 48.9844 31.7954 48.8922 31.6313 48.7281C31.4672 48.564 31.375 48.3414 31.375 48.1094V44.3906C31.375 43.9265 31.1906 43.4814 30.8624 43.1532C30.5343 42.825 30.0891 42.6406 29.625 42.6406H24.375C23.9109 42.6406 23.4658 42.825 23.1376 43.1532C22.8094 43.4814 22.625 43.9265 22.625 44.3906V51.5H43.625V12.2344C43.625 11.5382 43.3484 10.8705 42.8562 10.3782C42.3639 9.88593 41.6962 9.60937 41 9.60937H38.2656C38.0336 9.60937 37.811 9.51718 37.6469 9.35309C37.4828 9.18899 37.3906 8.96643 37.3906 8.73437C37.3906 8.50231 37.4828 8.27975 37.6469 8.11565C37.811 7.95156 38.0336 7.85937 38.2656 7.85937H41C42.1603 7.85937 43.2731 8.32031 44.0936 9.14078C44.9141 9.96125 45.375 11.074 45.375 12.2344V51.5H52.375C52.6071 51.5 52.8296 51.5922 52.9937 51.7563C53.1578 51.9204 53.25 52.1429 53.25 52.375ZM9.5 48C9.73206 48 9.95462 47.9078 10.1187 47.7437C10.2828 47.5796 10.375 47.3571 10.375 47.125V12.2344C10.375 11.5382 10.6516 10.8705 11.1438 10.3782C11.6361 9.88593 12.3038 9.60937 13 9.60937H19.0648C19.2826 11.5625 20.212 13.367 21.6757 14.6783C23.1394 15.9897 25.0348 16.7161 27 16.7187C27.2321 16.7187 27.4546 16.6266 27.6187 16.4625C27.7828 16.2984 27.875 16.0758 27.875 15.8437C27.875 15.6117 27.7828 15.3891 27.6187 15.225C27.4546 15.0609 27.2321 14.9687 27 14.9687C25.546 14.9697 24.1374 14.4623 23.0178 13.5345C21.8983 12.6066 21.1383 11.3167 20.8693 9.88773C20.6003 8.4588 20.8393 6.98079 21.5448 5.70939C22.2503 4.43799 23.378 3.45318 24.7328 2.92532C26.0877 2.39747 27.5844 2.35977 28.9641 2.81876C30.3438 3.27774 31.5196 4.20454 32.2882 5.43881C33.0568 6.67308 33.3699 8.1372 33.1731 9.57786C32.9764 11.0185 32.2823 12.3451 31.2109 13.3281C31.1262 13.4058 31.0576 13.4993 31.009 13.6035C30.9604 13.7076 30.9328 13.8203 30.9278 13.9352C30.9228 14.05 30.9404 14.1647 30.9797 14.2727C31.019 14.3807 31.0792 14.4799 31.1568 14.5646C31.2344 14.6493 31.328 14.718 31.4322 14.7666C31.5363 14.8151 31.649 14.8427 31.7638 14.8478C31.8786 14.8528 31.9933 14.8351 32.1013 14.7959C32.2093 14.7566 32.3085 14.6964 32.3933 14.6187C33.3455 13.7469 34.0721 12.6572 34.5108 11.443C34.9496 10.2288 35.0873 8.92634 34.9123 7.64723C34.7373 6.36812 34.2547 5.15052 33.5059 4.09882C32.7571 3.04712 31.7644 2.19268 30.613 1.60875C29.4615 1.02481 28.1857 0.728796 26.8948 0.746077C25.6038 0.763357 24.3364 1.09342 23.201 1.70797C22.0656 2.32251 21.0962 3.20322 20.3758 4.27459C19.6554 5.34595 19.2056 6.57603 19.0648 7.85937H13C11.8397 7.85937 10.7269 8.32031 9.90641 9.14078C9.08594 9.96125 8.625 11.074 8.625 12.2344V47.125C8.625 47.3571 8.71719 47.5796 8.88128 47.7437C9.04538 47.9078 9.26794 48 9.5 48ZM30.5 8.73437C30.5 8.50231 30.4078 8.27975 30.2437 8.11565C30.0796 7.95156 29.8571 7.85937 29.625 7.85937H27.875V6.10937C27.875 5.87731 27.7828 5.65475 27.6187 5.49065C27.4546 5.32656 27.2321 5.23437 27 5.23437C26.7679 5.23437 26.5454 5.32656 26.3813 5.49065C26.2172 5.65475 26.125 5.87731 26.125 6.10937V7.85937H24.375C24.1429 7.85937 23.9204 7.95156 23.7563 8.11565C23.5922 8.27975 23.5 8.50231 23.5 8.73437C23.5 8.96643 23.5922 9.18899 23.7563 9.35309C23.9204 9.51718 24.1429 9.60937 24.375 9.60937H26.125V11.3594C26.125 11.5914 26.2172 11.814 26.3813 11.9781C26.5454 12.1422 26.7679 12.2344 27 12.2344C27.2321 12.2344 27.4546 12.1422 27.6187 11.9781C27.7828 11.814 27.875 11.5914 27.875 11.3594V9.60937H29.625C29.8571 9.60937 30.0796 9.51718 30.2437 9.35309C30.4078 9.18899 30.5 8.96643 30.5 8.73437ZM28.0938 22.625H25.9062C25.6742 22.625 25.4516 22.7172 25.2875 22.8813C25.1234 23.0454 25.0312 23.2679 25.0312 23.5C25.0312 23.7321 25.1234 23.9546 25.2875 24.1187C25.4516 24.2828 25.6742 24.375 25.9062 24.375H28.0938C28.3258 24.375 28.5484 24.2828 28.7125 24.1187C28.8766 23.9546 28.9688 23.7321 28.9688 23.5C28.9688 23.2679 28.8766 23.0454 28.7125 22.8813C28.5484 22.7172 28.3258 22.625 28.0938 22.625ZM28.0938 31.375H25.9062C25.6742 31.375 25.4516 31.4672 25.2875 31.6313C25.1234 31.7954 25.0312 32.0179 25.0312 32.25C25.0312 32.4821 25.1234 32.7046 25.2875 32.8687C25.4516 33.0328 25.6742 33.125 25.9062 33.125H28.0938C28.3258 33.125 28.5484 33.0328 28.7125 32.8687C28.8766 32.7046 28.9688 32.4821 28.9688 32.25C28.9688 32.0179 28.8766 31.7954 28.7125 31.6313C28.5484 31.4672 28.3258 31.375 28.0938 31.375ZM19.3438 22.625H17.1562C16.9242 22.625 16.7016 22.7172 16.5375 22.8813C16.3734 23.0454 16.2812 23.2679 16.2812 23.5C16.2812 23.7321 16.3734 23.9546 16.5375 24.1187C16.7016 24.2828 16.9242 24.375 17.1562 24.375H19.3438C19.5758 24.375 19.7984 24.2828 19.9625 24.1187C20.1266 23.9546 20.2188 23.7321 20.2188 23.5C20.2188 23.2679 20.1266 23.0454 19.9625 22.8813C19.7984 22.7172 19.5758 22.625 19.3438 22.625ZM19.3438 31.375H17.1562C16.9242 31.375 16.7016 31.4672 16.5375 31.6313C16.3734 31.7954 16.2812 32.0179 16.2812 32.25C16.2812 32.4821 16.3734 32.7046 16.5375 32.8687C16.7016 33.0328 16.9242 33.125 17.1562 33.125H19.3438C19.5758 33.125 19.7984 33.0328 19.9625 32.8687C20.1266 32.7046 20.2188 32.4821 20.2188 32.25C20.2188 32.0179 20.1266 31.7954 19.9625 31.6313C19.7984 31.4672 19.5758 31.375 19.3438 31.375ZM36.8438 22.625H34.6562C34.4242 22.625 34.2016 22.7172 34.0375 22.8813C33.8734 23.0454 33.7812 23.2679 33.7812 23.5C33.7812 23.7321 33.8734 23.9546 34.0375 24.1187C34.2016 24.2828 34.4242 24.375 34.6562 24.375H36.8438C37.0758 24.375 37.2984 24.2828 37.4625 24.1187C37.6266 23.9546 37.7188 23.7321 37.7188 23.5C37.7188 23.2679 37.6266 23.0454 37.4625 22.8813C37.2984 22.7172 37.0758 22.625 36.8438 22.625ZM36.8438 31.375H34.6562C34.4242 31.375 34.2016 31.4672 34.0375 31.6313C33.8734 31.7954 33.7812 32.0179 33.7812 32.25C33.7812 32.4821 33.8734 32.7046 34.0375 32.8687C34.2016 33.0328 34.4242 33.125 34.6562 33.125H36.8438C37.0758 33.125 37.2984 33.0328 37.4625 32.8687C37.6266 32.7046 37.7188 32.4821 37.7188 32.25C37.7188 32.0179 37.6266 31.7954 37.4625 31.6313C37.2984 31.4672 37.0758 31.375 36.8438 31.375Z" fill="#404040"/>
<path d="M53.25 52.375C53.25 52.6071 53.1578 52.8296 52.9937 52.9937C52.8296 53.1578 52.6071 53.25 52.375 53.25H1.625C1.39294 53.25 1.17038 53.1578 1.00628 52.9937C0.842187 52.8296 0.75 52.6071 0.75 52.375C0.75 52.1429 0.842187 51.9204 1.00628 51.7563C1.17038 51.5922 1.39294 51.5 1.625 51.5H20.875V44.3906C20.875 43.4624 21.2437 42.5721 21.9001 41.9157C22.5565 41.2594 23.4467 40.8906 24.375 40.8906H29.625C30.5533 40.8906 31.4435 41.2594 32.0999 41.9157C32.7562 42.5721 33.125 43.4624 33.125 44.3906V48.1094C33.125 48.3414 33.0328 48.564 32.8687 48.7281C32.7046 48.8922 32.4821 48.9844 32.25 48.9844C32.0179 48.9844 31.7954 48.8922 31.6313 48.7281C31.4672 48.564 31.375 48.3414 31.375 48.1094V44.3906C31.375 43.9265 31.1906 43.4814 30.8624 43.1532C30.5343 42.825 30.0891 42.6406 29.625 42.6406H24.375C23.9109 42.6406 23.4658 42.825 23.1376 43.1532C22.8094 43.4814 22.625 43.9265 22.625 44.3906V51.5H43.625V12.2344C43.625 11.5382 43.3484 10.8705 42.8562 10.3782C42.3639 9.88593 41.6962 9.60937 41 9.60937H38.2656C38.0336 9.60937 37.811 9.51718 37.6469 9.35309C37.4828 9.18899 37.3906 8.96643 37.3906 8.73437C37.3906 8.50231 37.4828 8.27975 37.6469 8.11565C37.811 7.95156 38.0336 7.85937 38.2656 7.85937H41C42.1603 7.85937 43.2731 8.32031 44.0936 9.14078C44.9141 9.96125 45.375 11.074 45.375 12.2344V51.5H52.375C52.6071 51.5 52.8296 51.5922 52.9937 51.7563C53.1578 51.9204 53.25 52.1429 53.25 52.375ZM9.5 48C9.73206 48 9.95462 47.9078 10.1187 47.7437C10.2828 47.5796 10.375 47.3571 10.375 47.125V12.2344C10.375 11.5382 10.6516 10.8705 11.1438 10.3782C11.6361 9.88593 12.3038 9.60937 13 9.60937H19.0648C19.2826 11.5625 20.212 13.367 21.6757 14.6783C23.1394 15.9897 25.0348 16.7161 27 16.7187C27.2321 16.7187 27.4546 16.6266 27.6187 16.4625C27.7828 16.2984 27.875 16.0758 27.875 15.8437C27.875 15.6117 27.7828 15.3891 27.6187 15.225C27.4546 15.0609 27.2321 14.9687 27 14.9687C25.546 14.9697 24.1374 14.4623 23.0178 13.5345C21.8983 12.6066 21.1383 11.3167 20.8693 9.88773C20.6003 8.4588 20.8393 6.98079 21.5448 5.70939C22.2503 4.43799 23.378 3.45318 24.7328 2.92532C26.0877 2.39747 27.5844 2.35977 28.9641 2.81876C30.3438 3.27774 31.5196 4.20454 32.2882 5.43881C33.0568 6.67308 33.3699 8.1372 33.1731 9.57786C32.9764 11.0185 32.2823 12.3451 31.2109 13.3281C31.1262 13.4058 31.0576 13.4993 31.009 13.6035C30.9604 13.7076 30.9328 13.8203 30.9278 13.9352C30.9228 14.05 30.9404 14.1647 30.9797 14.2727C31.019 14.3807 31.0792 14.4799 31.1568 14.5646C31.2344 14.6493 31.328 14.718 31.4322 14.7666C31.5363 14.8151 31.649 14.8427 31.7638 14.8478C31.8786 14.8528 31.9933 14.8351 32.1013 14.7959C32.2093 14.7566 32.3085 14.6964 32.3933 14.6187C33.3455 13.7469 34.0721 12.6572 34.5108 11.443C34.9496 10.2288 35.0873 8.92634 34.9123 7.64723C34.7373 6.36812 34.2547 5.15052 33.5059 4.09882C32.7571 3.04712 31.7644 2.19268 30.613 1.60875C29.4615 1.02481 28.1857 0.728796 26.8948 0.746077C25.6038 0.763357 24.3364 1.09342 23.201 1.70797C22.0656 2.32251 21.0962 3.20322 20.3758 4.27459C19.6554 5.34595 19.2056 6.57603 19.0648 7.85937H13C11.8397 7.85937 10.7269 8.32031 9.90641 9.14078C9.08594 9.96125 8.625 11.074 8.625 12.2344V47.125C8.625 47.3571 8.71719 47.5796 8.88128 47.7437C9.04538 47.9078 9.26794 48 9.5 48ZM30.5 8.73437C30.5 8.50231 30.4078 8.27975 30.2437 8.11565C30.0796 7.95156 29.8571 7.85937 29.625 7.85937H27.875V6.10937C27.875 5.87731 27.7828 5.65475 27.6187 5.49065C27.4546 5.32656 27.2321 5.23437 27 5.23437C26.7679 5.23437 26.5454 5.32656 26.3813 5.49065C26.2172 5.65475 26.125 5.87731 26.125 6.10937V7.85937H24.375C24.1429 7.85937 23.9204 7.95156 23.7563 8.11565C23.5922 8.27975 23.5 8.50231 23.5 8.73437C23.5 8.96643 23.5922 9.18899 23.7563 9.35309C23.9204 9.51718 24.1429 9.60937 24.375 9.60937H26.125V11.3594C26.125 11.5914 26.2172 11.814 26.3813 11.9781C26.5454 12.1422 26.7679 12.2344 27 12.2344C27.2321 12.2344 27.4546 12.1422 27.6187 11.9781C27.7828 11.814 27.875 11.5914 27.875 11.3594V9.60937H29.625C29.8571 9.60937 30.0796 9.51718 30.2437 9.35309C30.4078 9.18899 30.5 8.96643 30.5 8.73437ZM28.0938 22.625H25.9062C25.6742 22.625 25.4516 22.7172 25.2875 22.8813C25.1234 23.0454 25.0312 23.2679 25.0312 23.5C25.0312 23.7321 25.1234 23.9546 25.2875 24.1187C25.4516 24.2828 25.6742 24.375 25.9062 24.375H28.0938C28.3258 24.375 28.5484 24.2828 28.7125 24.1187C28.8766 23.9546 28.9688 23.7321 28.9688 23.5C28.9688 23.2679 28.8766 23.0454 28.7125 22.8813C28.5484 22.7172 28.3258 22.625 28.0938 22.625ZM28.0938 31.375H25.9062C25.6742 31.375 25.4516 31.4672 25.2875 31.6313C25.1234 31.7954 25.0312 32.0179 25.0312 32.25C25.0312 32.4821 25.1234 32.7046 25.2875 32.8687C25.4516 33.0328 25.6742 33.125 25.9062 33.125H28.0938C28.3258 33.125 28.5484 33.0328 28.7125 32.8687C28.8766 32.7046 28.9688 32.4821 28.9688 32.25C28.9688 32.0179 28.8766 31.7954 28.7125 31.6313C28.5484 31.4672 28.3258 31.375 28.0938 31.375ZM19.3438 22.625H17.1562C16.9242 22.625 16.7016 22.7172 16.5375 22.8813C16.3734 23.0454 16.2812 23.2679 16.2812 23.5C16.2812 23.7321 16.3734 23.9546 16.5375 24.1187C16.7016 24.2828 16.9242 24.375 17.1562 24.375H19.3438C19.5758 24.375 19.7984 24.2828 19.9625 24.1187C20.1266 23.9546 20.2188 23.7321 20.2188 23.5C20.2188 23.2679 20.1266 23.0454 19.9625 22.8813C19.7984 22.7172 19.5758 22.625 19.3438 22.625ZM19.3438 31.375H17.1562C16.9242 31.375 16.7016 31.4672 16.5375 31.6313C16.3734 31.7954 16.2812 32.0179 16.2812 32.25C16.2812 32.4821 16.3734 32.7046 16.5375 32.8687C16.7016 33.0328 16.9242 33.125 17.1562 33.125H19.3438C19.5758 33.125 19.7984 33.0328 19.9625 32.8687C20.1266 32.7046 20.2188 32.4821 20.2188 32.25C20.2188 32.0179 20.1266 31.7954 19.9625 31.6313C19.7984 31.4672 19.5758 31.375 19.3438 31.375ZM36.8438 22.625H34.6562C34.4242 22.625 34.2016 22.7172 34.0375 22.8813C33.8734 23.0454 33.7812 23.2679 33.7812 23.5C33.7812 23.7321 33.8734 23.9546 34.0375 24.1187C34.2016 24.2828 34.4242 24.375 34.6562 24.375H36.8438C37.0758 24.375 37.2984 24.2828 37.4625 24.1187C37.6266 23.9546 37.7188 23.7321 37.7188 23.5C37.7188 23.2679 37.6266 23.0454 37.4625 22.8813C37.2984 22.7172 37.0758 22.625 36.8438 22.625ZM36.8438 31.375H34.6562C34.4242 31.375 34.2016 31.4672 34.0375 31.6313C33.8734 31.7954 33.7812 32.0179 33.7812 32.25C33.7812 32.4821 33.8734 32.7046 34.0375 32.8687C34.2016 33.0328 34.4242 33.125 34.6562 33.125H36.8438C37.0758 33.125 37.2984 33.0328 37.4625 32.8687C37.6266 32.7046 37.7188 32.4821 37.7188 32.25C37.7188 32.0179 37.6266 31.7954 37.4625 31.6313C37.2984 31.4672 37.0758 31.375 36.8438 31.375Z" stroke="#404040" stroke-width="0.8" mask="url(#path-1-outside-1_365_102)"/>
</svg>
