<svg width="58" height="58" viewBox="0 0 58 58" fill="none" xmlns="http://www.w3.org/2000/svg">
<path d="M36.6309 38.4287C37.629 38.4288 38.5379 39.0099 38.9453 39.918L45.248 53.9736C45.9955 55.6406 44.7562 57.4999 42.9336 57.5H14.5195C12.6516 57.5 11.4128 55.5556 12.25 53.8799L19.2725 39.8242C19.7006 38.9676 20.5816 38.4288 21.542 38.4287H36.6309ZM21.542 39.875C21.1276 39.8751 20.7528 40.1076 20.5723 40.4688L13.5488 54.5244C13.2012 55.221 13.7099 56.0537 14.5195 56.0537H42.9336C43.7235 56.0536 44.2336 55.2565 43.9229 54.5635L37.6201 40.5078C37.4484 40.1254 37.0616 39.875 36.6309 39.875H21.542ZM28.9033 0.5C34.751 0.480455 40.4642 2.23928 45.2666 5.53809C50.069 8.83701 53.7286 13.5173 55.748 18.9434C57.7674 24.3695 58.0487 30.2788 56.5527 35.8682C55.0567 41.4573 51.8563 46.4554 47.3877 50.1846L47.0088 50.501L46.6875 50.126L46.542 49.9561L46.541 49.9551L46.3955 49.7852L46.0674 49.4004L46.4551 49.0762C50.6958 45.5373 53.7307 40.7954 55.1494 35.4951C56.568 30.1949 56.3018 24.5911 54.3867 19.4453C52.4715 14.2998 49 9.85932 44.4424 6.72852C39.8845 3.59772 34.4605 1.92776 28.9082 1.94629C23.3558 1.96494 17.9436 3.67074 13.4072 6.83203C8.87097 9.9933 5.42967 14.4569 3.5498 19.6152C1.67004 24.7736 1.44263 30.3793 2.89746 35.6699C4.35239 40.9604 7.41988 45.6819 11.6846 49.1924L12.0752 49.5137L11.6055 50.0723H11.6045L11.46 50.2441L11.1416 50.6211L10.7598 50.3076C6.26568 46.6084 3.03133 41.6309 1.49707 36.0518C-0.0370602 30.4726 0.203426 24.5614 2.18555 19.1221C4.16776 13.6828 7.79558 8.97838 12.5752 5.64746C17.3548 2.31662 23.0557 0.519616 28.9033 0.5ZM36.4512 27.2734C37.844 27.2734 38.9843 28.3906 38.9844 29.7812V34.6895C38.9843 36.0801 37.844 37.1973 36.4512 37.1973H21.7744C20.3817 37.1972 19.2423 36.0801 19.2422 34.6895V29.7812C19.2423 28.3906 20.3816 27.2735 21.7744 27.2734H36.4512ZM22.5029 15.3555C24.8402 14.2409 27.4308 13.7461 30.0195 13.9209C32.608 14.0958 35.1064 14.934 37.2686 16.3525C39.4309 17.7714 41.184 19.7226 42.3525 22.0146C43.521 24.3066 44.0649 26.8603 43.9316 29.4238C43.7984 31.9873 42.9925 34.4724 41.5928 36.6338L41.3242 37.0479L40.9062 36.7852L40.7158 36.666L40.7139 36.6641L40.5244 36.5439L40.0986 36.2734L40.373 35.8496C41.6355 33.9003 42.3622 31.6599 42.4824 29.3496C42.6025 27.0391 42.1113 24.7367 41.0576 22.6699C40.0038 20.6031 38.4232 18.8417 36.4707 17.5605C34.518 16.2793 32.2604 15.5223 29.9209 15.3643C27.5816 15.2063 25.241 15.6525 23.1299 16.6592C21.0187 17.666 19.2098 19.1992 17.8809 21.1055C16.5521 23.0117 15.7481 25.2261 15.5488 27.5312C15.3496 29.8365 15.7609 32.154 16.7432 34.2549L16.957 34.7119L16.498 34.9219L16.0879 35.1084L15.6377 35.3145L15.4277 34.8652C14.3386 32.5355 13.8815 29.9649 14.1025 27.4072C14.3237 24.8496 15.2155 22.3934 16.6885 20.2803C18.1616 18.1672 20.1657 16.4701 22.5029 15.3555ZM21.7744 28.7188C21.172 28.7188 20.6934 29.2005 20.6934 29.7812V34.6895C20.6934 35.2701 21.1719 35.751 21.7744 35.751H36.4512C37.0536 35.751 37.5321 35.2701 37.5322 34.6895V29.7812C37.5322 29.2005 37.0536 28.7188 36.4512 28.7188H21.7744Z" fill="#323232" stroke="#404040"/>
</svg>
