<svg width="20" height="24" viewBox="0 0 20 24" fill="none" xmlns="http://www.w3.org/2000/svg">
<path d="M19.8681 5.3856L14.4211 0.1152C14.3478 0.0432 14.2452 0 14.1378 0H4.08891C2.56961 0 1.33854 1.2768 1.33854 2.8512V13.3728H0V20.5056H1.33854V21.1488C1.33854 22.7184 2.5745 24 4.08891 24H17.2496C18.7689 24 20 22.7232 20 21.1488V5.6976C20 5.5824 19.956 5.4672 19.8681 5.3856ZM14.001 0.8832L18.7396 5.472H16.1602C14.9682 5.472 14.001 4.536 14.001 3.3888V0.8832ZM19.1695 21.1488C19.1695 22.248 18.3097 23.1408 17.2496 23.1408H4.08891C3.02882 23.1408 2.16903 22.248 2.16903 21.1488V20.5056H11.3043C13.0874 20.5056 14.5286 18.9072 14.5286 16.9392C14.5286 14.9712 13.0826 13.3728 11.3043 13.3728H2.16903V2.8512C2.16903 1.752 3.02882 0.8592 4.08891 0.8592H13.1705V3.3888C13.1705 5.0112 14.509 6.3312 16.1602 6.3312H19.1695V21.1488ZM2.56961 18.7392V15.1392H3.97167C4.37714 15.1392 4.69467 15.24 4.91939 15.4464C5.14411 15.6528 5.26136 15.9216 5.26136 16.2576C5.26136 16.5936 5.149 16.8672 4.91939 17.0688C4.68979 17.2704 4.37225 17.376 3.97167 17.376H3.18026V18.7392H2.56961ZM6.00391 18.7392V15.1392H7.21544C7.67953 15.1392 8.05569 15.2832 8.3488 15.5664C8.64191 15.8496 8.78359 16.2192 8.78359 16.6656V17.2128C8.78359 17.664 8.63703 18.0288 8.3488 18.312C8.05569 18.5952 7.67953 18.7392 7.21544 18.7392H6.00391ZM11.7 17.2032H10.2247V18.7392H9.60918V15.1392H11.9541V15.6192H10.2198V16.7184H11.7V17.2032Z" fill="#6180A1"/>
<path d="M4.48461 16.7136C4.59697 16.5936 4.65559 16.4448 4.65559 16.2624C4.65559 16.08 4.59697 15.9264 4.48461 15.8064C4.37225 15.6864 4.20127 15.624 3.97167 15.624H3.18026V16.896H3.97167C4.20127 16.8912 4.36737 16.8336 4.48461 16.7136Z" fill="#6180A1"/>
<path d="M7.21544 15.624H6.61456V18.264H7.21544C7.50855 18.264 7.74304 18.168 7.91402 17.9712C8.085 17.7744 8.17294 17.5248 8.17294 17.2176V16.6656C8.17294 16.3632 8.085 16.1136 7.91402 15.9168C7.74304 15.72 7.50855 15.624 7.21544 15.624Z" fill="#6180A1"/>
</svg>
