<svg width="24" height="24" viewBox="0 0 24 24" fill="none" xmlns="http://www.w3.org/2000/svg">
<path d="M3.56438 0.443876C4.46304 -0.182683 5.64783 -0.146252 6.29493 0.555269L6.41756 0.705042L6.98388 1.54377C7.83727 2.82325 9.337 5.09938 9.54968 5.43504C9.8029 5.83401 9.83381 6.2803 9.79306 6.63696C9.75125 7.00282 9.62411 7.36429 9.45233 7.69005L9.45327 7.69099C9.31621 7.95224 8.97611 8.55585 8.681 9.07638C8.58596 9.24401 8.49336 9.40495 8.41234 9.54723C8.49712 9.66212 8.60037 9.80039 8.72687 9.96004C9.20751 10.5667 10.0065 11.4954 11.2543 12.743C12.5023 13.9908 13.4314 14.7893 14.0382 15.2704C14.1972 15.3965 14.3345 15.5002 14.4491 15.5849C14.5915 15.5039 14.7532 15.4123 14.9209 15.3172C15.4401 15.0228 16.0414 14.6837 16.3035 14.5459C16.6325 14.3719 16.9964 14.2468 17.3622 14.2061C17.7186 14.1665 18.155 14.2007 18.5473 14.4401C18.7904 14.5888 19.8899 15.3138 20.9699 16.0305L23.2792 17.5732L23.2801 17.5741C24.1625 18.1928 24.2112 19.4933 23.5497 20.4366C23.2942 20.8022 22.6329 21.6342 21.9191 22.378C21.5617 22.7504 21.1666 23.1267 20.7836 23.4152C20.5923 23.5593 20.3826 23.6988 20.1648 23.8037C19.9598 23.9024 19.6695 24.0095 19.3401 23.9993H19.3383C18.8121 23.9822 17.542 23.9385 15.5069 22.9827C13.4976 22.0391 10.7741 20.2223 7.27501 16.7223C3.77661 13.2234 1.95987 10.4998 1.01637 8.4904C0.0608344 6.45529 0.0175548 5.18483 0.000723427 4.6581C-0.00981607 4.32844 0.0967187 4.03784 0.195428 3.83248C0.300203 3.61451 0.438905 3.40425 0.582966 3.21279C0.871405 2.82947 1.2478 2.43391 1.62014 2.0764C2.36493 1.36129 3.19883 0.699729 3.56345 0.444812L3.56438 0.443876ZM4.92357 1.91633C4.87694 1.9165 4.78457 1.92912 4.66053 2.01555L4.66147 2.01649C4.38346 2.21092 3.62673 2.80866 2.94844 3.45992C2.60909 3.78575 2.31527 4.10032 2.11533 4.36604C2.01534 4.49893 1.95471 4.59777 1.92343 4.66278C1.92253 4.66466 1.92145 4.66664 1.92062 4.66839C1.93395 5.07267 1.98824 6.0497 2.75186 7.67601C3.57736 9.43401 5.24409 11.98 8.63045 15.3668C12.0175 18.7548 14.5645 20.4217 16.3222 21.2473C17.943 22.0084 18.9181 22.0648 19.3252 22.0785C19.3275 22.0774 19.3301 22.0769 19.3327 22.0757C19.3977 22.0444 19.4973 21.9849 19.6303 21.8847C19.896 21.6846 20.2107 21.3901 20.5365 21.0507C21.1876 20.3721 21.7851 19.6152 21.979 19.3377L21.9799 19.3358C22.0636 19.2164 22.0814 19.1271 22.0838 19.0793C21.4267 18.6336 18.1985 16.487 17.6018 16.1101C17.5942 16.1104 17.5848 16.1107 17.5738 16.1119C17.4896 16.1213 17.3576 16.1579 17.2003 16.2411L17.1975 16.2421C16.9702 16.3615 16.3985 16.6826 15.8664 16.9844C15.6041 17.1331 15.3573 17.2748 15.1755 17.3785C15.0848 17.4302 15.01 17.4725 14.9584 17.502C14.9326 17.5167 14.9121 17.5279 14.8984 17.5357C14.8916 17.5396 14.886 17.5431 14.8825 17.5451C14.8809 17.546 14.8796 17.5465 14.8788 17.5469L14.8779 17.5479L14.3948 17.824L13.9156 17.5423L13.9137 17.5413C13.9129 17.5409 13.9118 17.54 13.9109 17.5395C13.909 17.5383 13.9068 17.5372 13.9043 17.5357C13.8993 17.5327 13.893 17.529 13.8856 17.5245C13.8706 17.5153 13.8504 17.5028 13.8257 17.487C13.7759 17.4552 13.706 17.409 13.617 17.3476C13.4388 17.2247 13.1823 17.0383 12.8475 16.7728C12.1776 16.2417 11.1936 15.393 9.89884 14.0984C8.60413 12.804 7.75535 11.8198 7.22446 11.1498C6.95913 10.8149 6.77252 10.5586 6.6497 10.3803C6.58829 10.2912 6.54296 10.2215 6.51116 10.1716C6.49534 10.1468 6.48295 10.1268 6.47372 10.1117C6.4691 10.1041 6.46554 10.0971 6.46249 10.092C6.461 10.0896 6.45893 10.0874 6.45781 10.0855C6.45731 10.0846 6.45729 10.0834 6.45687 10.0827L6.455 10.0808L6.17417 9.60152L6.45032 9.11944L6.45125 9.11851C6.45173 9.11767 6.45222 9.11634 6.45313 9.11476C6.45513 9.11127 6.45858 9.10569 6.46249 9.09885C6.47031 9.08518 6.4815 9.06462 6.49619 9.03894C6.52572 8.98728 6.56895 8.9134 6.62069 8.82271C6.72439 8.64092 6.86508 8.39333 7.01384 8.13094C7.31581 7.59831 7.63728 7.02646 7.75615 6.79984L7.75709 6.79797C7.84166 6.63791 7.87844 6.50391 7.88814 6.4198C7.88905 6.41184 7.88866 6.40433 7.88907 6.39827C7.48757 5.775 5.36314 2.55706 4.92357 1.91633ZM14.8872 15.8901L14.891 15.892L14.89 15.891L14.8872 15.8901Z" fill="white" stroke="#6180A1" stroke-width="0.4" stroke-miterlimit="10"/>
</svg>
