<svg width="26" height="26" viewBox="0 0 26 26" fill="none" xmlns="http://www.w3.org/2000/svg">
<path d="M18.7617 15.7344C19.7383 14.1979 20.3112 12.375 20.3112 10.4154C20.3112 4.9401 15.8776 0.5 10.4089 0.5C4.93359 0.5 0.5 4.9401 0.5 10.4154C0.5 15.8906 4.93359 20.3307 10.4023 20.3307C12.388 20.3307 14.237 19.7448 15.7865 18.7422L16.2357 18.4297L23.306 25.5L25.5 23.2669L18.4362 16.1966L18.7617 15.7344ZM15.9557 4.875C17.4336 6.35286 18.2474 8.31901 18.2474 10.4089C18.2474 12.4987 17.4336 14.4648 15.9557 15.9427C14.4779 17.4206 12.5117 18.2344 10.4219 18.2344C8.33203 18.2344 6.36588 17.4206 4.88802 15.9427C3.41016 14.4648 2.59635 12.4987 2.59635 10.4089C2.59635 8.31901 3.41016 6.35286 4.88802 4.875C6.36588 3.39714 8.33203 2.58333 10.4219 2.58333C12.5117 2.58333 14.4779 3.39714 15.9557 4.875Z" fill="white"/>
</svg>
