<svg width="206" height="404" viewBox="0 0 206 404" fill="none" xmlns="http://www.w3.org/2000/svg">
<g filter="url(#filter0_d_364_447)">
<path d="M200 2C147.487 2 97.1251 22.8607 59.9929 59.9929C22.8607 97.125 2 147.487 2 200C2 252.513 22.8606 302.875 59.9928 340.007C97.125 377.139 147.487 398 200 398L200 319.297C168.361 319.297 138.017 306.728 115.644 284.356C93.272 261.983 80.7033 231.639 80.7033 200C80.7033 168.361 93.272 138.017 115.644 115.644C138.017 93.272 168.361 80.7033 200 80.7033L200 2Z" fill="#F5F5F5"/>
</g>
<defs>
<filter id="filter0_d_364_447" x="0" y="0" width="206" height="404" filterUnits="userSpaceOnUse" color-interpolation-filters="sRGB">
<feFlood flood-opacity="0" result="BackgroundImageFix"/>
<feColorMatrix in="SourceAlpha" type="matrix" values="0 0 0 0 0 0 0 0 0 0 0 0 0 0 0 0 0 0 127 0" result="hardAlpha"/>
<feOffset dx="2" dy="2"/>
<feGaussianBlur stdDeviation="2"/>
<feComposite in2="hardAlpha" operator="out"/>
<feColorMatrix type="matrix" values="0 0 0 0 0.25098 0 0 0 0 0.25098 0 0 0 0 0.25098 0 0 0 0.15 0"/>
<feBlend mode="normal" in2="BackgroundImageFix" result="effect1_dropShadow_364_447"/>
<feBlend mode="normal" in="SourceGraphic" in2="effect1_dropShadow_364_447" result="shape"/>
</filter>
</defs>
</svg>
