<svg width="38" height="40" viewBox="0 0 38 40" fill="none" xmlns="http://www.w3.org/2000/svg">
<path d="M29.2932 16.3158C31.6682 14.9817 33.25 12.6525 33.25 10C33.25 5.86417 29.4139 2.5 24.7 2.5C23.8858 2.5 23.0802 2.60667 22.2955 2.81083C20.5532 1.09167 18.0224 0 15.2 0C9.9617 0 5.7 3.73833 5.7 8.33333C5.7 11.1925 7.35205 13.72 9.861 15.2208C4.23985 16.2342 0 20.6075 0 25.8333V40H30.4V36.6667H38V26.6667C38 21.805 34.3302 17.6825 29.2932 16.3158ZM23.4859 4.26667C23.8868 4.2 24.2924 4.16667 24.7 4.16667C28.367 4.16667 31.35 6.78417 31.35 10C31.35 13.2158 28.367 15.8333 24.7 15.8333C23.3956 15.8333 22.1397 15.5 21.0653 14.88C21.0795 14.87 21.091 14.8592 21.1052 14.8492C21.9203 14.2792 22.6242 13.595 23.1904 12.8233C23.2123 12.7933 23.2323 12.7617 23.2541 12.7317C23.4137 12.5075 23.5619 12.2767 23.6968 12.0383C23.7215 11.9942 23.7462 11.9492 23.7699 11.905C23.8934 11.6783 24.0046 11.4458 24.1053 11.2083C24.1281 11.155 24.1509 11.1017 24.1727 11.0475C24.264 10.8175 24.3409 10.5833 24.4093 10.3442C24.4273 10.2825 24.4473 10.2208 24.4634 10.1592C24.5233 9.92417 24.5698 9.685 24.6059 9.4425C24.6164 9.3775 24.6316 9.31417 24.6392 9.24917C24.6772 8.94917 24.7 8.64333 24.7 8.33333C24.7 8.00333 24.6725 7.67917 24.6297 7.35917C24.6164 7.25833 24.5945 7.15917 24.5774 7.05833C24.5375 6.83333 24.49 6.61167 24.4302 6.39333C24.4017 6.28833 24.3713 6.18417 24.338 6.08083C24.2601 5.83833 24.1699 5.60167 24.0682 5.36833C24.0407 5.30583 24.0189 5.24167 23.9894 5.17917C23.845 4.87 23.6797 4.57083 23.4954 4.28167C23.4916 4.27667 23.4888 4.27167 23.4859 4.26667ZM7.6 8.33333C7.6 4.6575 11.0096 1.66667 15.2 1.66667C17.5532 1.66667 19.6583 2.61 21.0539 4.08667L21.1147 4.15583C21.1612 4.20583 21.2021 4.26 21.2467 4.31083C21.7293 4.86833 22.0989 5.47583 22.3592 6.11667C22.3772 6.16083 22.3972 6.20333 22.4134 6.2475C22.5264 6.545 22.611 6.85083 22.6746 7.16083C22.6879 7.22667 22.6984 7.29333 22.7098 7.36C22.763 7.68083 22.8 8.00417 22.8 8.33333C22.8 8.60667 22.7762 8.87667 22.7382 9.14417C22.7297 9.2075 22.7164 9.26917 22.7059 9.33167C22.667 9.55167 22.6185 9.76917 22.5549 9.98333C22.5416 10.0292 22.5293 10.075 22.515 10.1208C22.3431 10.6567 22.0979 11.1708 21.7826 11.6508C21.7759 11.66 21.7693 11.6692 21.7635 11.6783C21.6106 11.9083 21.4415 12.1292 21.2582 12.3425C21.2411 12.3625 21.2239 12.3833 21.2069 12.4033C20.8193 12.8433 20.368 13.2417 19.8607 13.5883C19.8341 13.6067 19.8065 13.6233 19.7799 13.6417C19.5386 13.8017 19.2869 13.9517 19.0228 14.0867C18.9924 14.1025 18.9629 14.1192 18.9326 14.135L18.7853 14.21C17.7156 14.7125 16.4958 15 15.2 15C11.0096 15 7.6 12.0092 7.6 8.33333ZM28.5 38.3333H1.9V25.8333C1.9 20.7792 6.58825 16.6667 12.35 16.6667H18.05C19.4702 16.6667 20.8249 16.9183 22.0609 17.3708L22.2433 17.4425C22.3487 17.4833 22.4504 17.53 22.5539 17.5742C22.8361 17.6925 23.1087 17.8217 23.3748 17.96C23.4954 18.0233 23.618 18.085 23.7358 18.1525C23.8621 18.2242 23.9837 18.3 24.1062 18.3767C24.2326 18.4558 24.357 18.5375 24.4796 18.6217C24.5889 18.6967 24.6971 18.7708 24.8026 18.8492C24.9632 18.9692 25.118 19.0942 25.27 19.2225C25.3897 19.3233 25.5065 19.4267 25.6206 19.5325C25.7488 19.6517 25.8761 19.7717 25.9977 19.8958C26.088 19.9892 26.1744 20.0842 26.2599 20.18C26.3568 20.2883 26.4499 20.3983 26.542 20.5108C26.6256 20.6125 26.7093 20.7142 26.7881 20.8192C26.8964 20.9633 26.9961 21.1125 27.0949 21.2617C27.1985 21.4183 27.2944 21.5775 27.3875 21.7392C27.4559 21.8575 27.5224 21.9767 27.5851 22.0983C27.6469 22.2183 27.7049 22.3408 27.76 22.4633C27.8188 22.5942 27.873 22.7267 27.9262 22.86C27.9699 22.9717 28.0174 23.0825 28.0564 23.1958C28.1362 23.4283 28.2055 23.6642 28.2644 23.9033C28.2872 23.995 28.3033 24.0892 28.3233 24.1817C28.3622 24.3667 28.3955 24.5533 28.4212 24.7417C28.4335 24.83 28.4458 24.9183 28.4544 25.0075C28.48 25.28 28.5 25.555 28.5 25.8333V38.3333ZM36.1 35H30.4V25.8333C30.4 25.4375 30.3725 25.0475 30.325 24.6625C30.3136 24.57 30.2917 24.48 30.2774 24.3883C30.2318 24.0925 30.1796 23.7992 30.1074 23.5117C30.0827 23.415 30.0504 23.3208 30.0229 23.225C29.9431 22.945 29.8556 22.6675 29.7521 22.3967C29.716 22.3025 29.6742 22.21 29.6353 22.1167C29.5241 21.85 29.4035 21.5883 29.2695 21.3317C29.2201 21.2383 29.1688 21.1467 29.1165 21.0542C28.9759 20.805 28.8258 20.5608 28.6644 20.3225C28.6026 20.2317 28.5409 20.1417 28.4772 20.0517C28.3081 19.8183 28.1285 19.5925 27.9404 19.3708C27.8692 19.2875 27.8008 19.2025 27.7276 19.1208C27.5205 18.8917 27.3011 18.6733 27.075 18.46C27.0085 18.3975 26.9477 18.3325 26.8793 18.2708C26.5791 18.0017 26.2665 17.7433 25.9359 17.5025C31.5656 17.6358 36.1 21.6958 36.1 26.6667V35Z" fill="#6180A1"/>
</svg>
