<svg width="42" height="40" viewBox="0 0 42 40" fill="none" xmlns="http://www.w3.org/2000/svg">
<path d="M32.4258 9.99414C33.4388 9.81548 34.4887 9.907 35.4414 10.2568C36.3942 10.6068 37.2041 11.1983 37.7715 11.9512C38.3384 12.7035 38.6386 13.5844 38.6387 14.4824C38.637 15.6857 38.0981 16.8468 37.127 17.708C36.1548 18.57 34.8305 19.059 33.4443 19.0605L33.0586 19.0479C32.1613 18.9889 31.2954 18.7247 30.5469 18.2812C29.6919 17.7746 29.0299 17.0578 28.6406 16.2246C28.2516 15.3918 28.1509 14.4774 28.3486 13.5957C28.5465 12.7136 29.0361 11.8984 29.7607 11.2559C30.4857 10.6132 31.4127 10.1728 32.4258 9.99414ZM33.4443 12.1641C32.9397 12.1641 32.4441 12.2969 32.0205 12.5479C31.5969 12.7989 31.2618 13.1584 31.0625 13.585C30.8629 14.0123 30.8098 14.4853 30.9121 14.9414C31.0144 15.397 31.2659 15.8109 31.6289 16.1328C31.9917 16.4544 32.4508 16.6704 32.9463 16.7578C33.4417 16.8451 33.9556 16.8009 34.4238 16.6289C34.8921 16.4569 35.2968 16.1634 35.584 15.7822C35.8715 15.4006 36.0273 14.9482 36.0273 14.4824C36.0265 13.8573 35.7466 13.2647 35.2598 12.833C34.7738 12.4022 34.1201 12.1647 33.4443 12.1641ZM8.16309 0.352539C9.32696 0.14729 10.5331 0.252263 11.6279 0.654297C12.7229 1.05645 13.6548 1.73621 14.3076 2.60254C14.9192 3.41416 15.2613 4.35635 15.3018 5.32324L15.3057 5.51758C15.3038 6.90351 14.6822 8.23916 13.5654 9.22949C12.4474 10.2208 10.9255 10.7827 9.33301 10.7842C8.14571 10.7841 6.98709 10.4721 6.00391 9.88965C5.02079 9.30718 4.25969 8.48185 3.81152 7.52246C3.36375 6.56383 3.24697 5.51133 3.47461 4.49609C3.70249 3.48025 4.26617 2.54174 5.09961 1.80273C5.93331 1.06358 6.99914 0.55783 8.16309 0.352539ZM9.33301 2.50879C8.67459 2.50885 8.02902 2.68205 7.47754 3.00879C6.9259 3.33564 6.49067 3.80276 6.23242 4.35547C5.97391 4.90886 5.90575 5.52043 6.03809 6.11035C6.17036 6.69979 6.49597 7.23693 6.96777 7.65527C7.43919 8.07319 8.03646 8.35471 8.68262 8.46875C9.32904 8.58276 9.99993 8.52498 10.6104 8.30078C11.2208 8.07655 11.7474 7.69478 12.1201 7.2002C12.493 6.70524 12.6943 6.1196 12.6943 5.51758V5.5166C12.6932 4.70893 12.3307 3.94177 11.6982 3.38086C11.0666 2.82079 10.2158 2.50978 9.33398 2.50879H9.33301ZM3.36133 27.3369L3.11133 27.3359C2.34368 27.3351 1.61287 27.064 1.07812 26.5898C0.544465 26.1166 0.250848 25.4819 0.25 24.8271V16.5518L0.255859 16.3613C0.310143 15.4095 0.760404 14.5006 1.53418 13.8145C2.36057 13.0817 3.4869 12.6652 4.66699 12.6641H16.1758L23.8799 20.8613L23.9541 20.9395H37.333C38.5131 20.9406 39.6394 21.3571 40.4658 22.0898C41.2396 22.7759 41.6897 23.685 41.7441 24.6367L41.75 24.8281V28.9658C41.749 29.6204 41.4555 30.2554 40.9219 30.7285C40.3871 31.2026 39.6562 31.4738 38.8887 31.4746H38.6387V37.2412L38.625 37.4854C38.561 38.052 38.2776 38.5897 37.8105 39.0039C37.2758 39.478 36.545 39.7492 35.7773 39.75H31.1113L30.8252 39.7373C30.1638 39.6784 29.546 39.4187 29.0781 39.0039C28.5444 38.5306 28.2509 37.896 28.25 37.2412V29.2158H30.8613V37.4912H36.0273V29.2158H39.1387V24.8271C39.1382 24.385 38.9396 23.9684 38.5986 23.666C38.2586 23.3645 37.8035 23.1987 37.334 23.1982H22.7129L15.0088 15.001L14.9355 14.9229H4.66602C4.19659 14.9233 3.74139 15.0882 3.40137 15.3896C3.06025 15.6921 2.86178 16.1095 2.86133 16.5518V25.0771H5.97266V37.4912H12.6943V27.8359H15.3057V37.2412L15.292 37.4854C15.228 38.052 14.9446 38.5898 14.4775 39.0039C13.9428 39.478 13.2119 39.7492 12.4443 39.75H6.22266C5.45502 39.7492 4.72421 39.478 4.18945 39.0039C3.65571 38.5306 3.36222 37.896 3.36133 37.2412V27.3369Z" fill="#6180A1" stroke="white" stroke-width="0.5"/>
</svg>
