<svg width="45" height="42" viewBox="0 0 45 42" fill="none" xmlns="http://www.w3.org/2000/svg">
<path d="M1 15.392V14.392C0.447715 14.392 0 14.8398 0 15.392H1ZM1 27.4428H0C0 27.9951 0.447715 28.4428 1 28.4428L1 27.4428ZM22.6286 10.0381L21.918 9.3345C21.5321 9.72421 21.5321 10.352 21.918 10.7417L22.6286 10.0381ZM21.8814 1.83488V0.834878H3.98305V1.83488V2.83488H21.8814V1.83488ZM3.98305 1.83488V0.834878C1.77333 0.834878 0 2.64013 0 4.84758H1H2C2 3.726 2.8965 2.83488 3.98305 2.83488V1.83488ZM1 4.84758H0V37.9873H1H2V4.84758H1ZM1 37.9873H0C0 40.1948 1.77333 42 3.98305 42V41V40C2.8965 40 2 39.1089 2 37.9873H1ZM3.98305 41V42H30.8305V41V40H3.98305V41ZM30.8305 41V42C33.0402 42 34.8136 40.1948 34.8136 37.9873H33.8136H32.8136C32.8136 39.1089 31.9171 40 30.8305 40V41ZM33.8136 37.9873H34.8136V21.4174H33.8136H32.8136V37.9873H33.8136ZM9.94915 15.392V14.392H1V15.392V16.392H9.94915V15.392ZM1 15.392H0V27.4428H1H2V15.392H1ZM1 27.4428V28.4428H9.94915V27.4428V26.4428H1V27.4428ZM9.94915 27.4428V28.4428C13.8055 28.4428 16.9153 25.2879 16.9153 21.4174H15.9153H14.9153C14.9153 24.202 12.6823 26.4428 9.94915 26.4428V27.4428ZM15.9153 21.4174H16.9153C16.9153 17.547 13.8055 14.392 9.94915 14.392V15.392V16.392C12.6823 16.392 14.9153 18.6328 14.9153 21.4174H15.9153ZM11.4407 21.4174H10.4407C10.4407 21.7064 10.2113 21.9238 9.94915 21.9238V22.9238V23.9238C11.3345 23.9238 12.4407 22.7923 12.4407 21.4174H11.4407ZM9.94915 22.9238V21.9238C9.68699 21.9238 9.45763 21.7064 9.45763 21.4174H8.45763H7.45763C7.45763 22.7923 8.56382 23.9238 9.94915 23.9238V22.9238ZM8.45763 21.4174H9.45763C9.45763 21.1284 9.68699 20.9111 9.94915 20.9111V19.9111V18.9111C8.56382 18.9111 7.45763 20.0426 7.45763 21.4174H8.45763ZM9.94915 19.9111V20.9111C10.2113 20.9111 10.4407 21.1284 10.4407 21.4174H11.4407H12.4407C12.4407 20.0426 11.3345 18.9111 9.94915 18.9111V19.9111ZM45 10.1197V9.11975H22.6271V10.1197V11.1197H45V10.1197ZM31.5777 1L30.8671 0.296399L21.918 9.3345L22.6286 10.0381L23.3392 10.7417L32.2883 1.7036L31.5777 1ZM22.6286 10.0381L21.918 10.7417L30.8671 19.7798L31.5777 19.0762L32.2883 18.3726L23.3392 9.3345L22.6286 10.0381Z" fill="#6180A1"/>
</svg>
