<svg width="40" height="48" viewBox="0 0 40 48" fill="none" xmlns="http://www.w3.org/2000/svg">
<path fill-rule="evenodd" clip-rule="evenodd" d="M34.8733 13.7097C38.05 17.352 40 22.1497 40 27.4286C40 38.7897 31.0456 48 20 48C8.95444 48 0 38.7897 0 27.4286C0 17.2377 7.21111 8.80114 16.6667 7.16572V2.28571H14.4444C13.83 2.28571 13.3333 1.77371 13.3333 1.14286C13.3333 0.512 13.83 0 14.4444 0H25.5556C26.17 0 26.6667 0.512 26.6667 1.14286C26.6667 1.77371 26.17 2.28571 25.5556 2.28571H23.3333V7.16C27.1411 7.824 30.5822 9.58743 33.3389 12.1314L35.9267 9.46972C36.35 9.03429 37.0367 9.03429 37.4611 9.46972C37.8844 9.90514 37.8844 10.6126 37.4611 11.048L34.8733 13.7097ZM21.1111 2.28571H18.8889V6.91543C19.2589 6.89371 19.6244 6.85714 20 6.85714C20.3756 6.85714 20.7411 6.89029 21.1111 6.91086V2.28571ZM20 9.14286C10.1822 9.14286 2.22222 17.3291 2.22222 27.4286C2.22222 37.528 10.1822 45.7143 20 45.7143C29.8189 45.7143 37.7778 37.528 37.7778 27.4286C37.7778 17.3303 29.8189 9.14286 20 9.14286ZM20 32C17.5456 32 15.5556 29.9531 15.5556 27.4286C15.5556 26.5726 15.7989 25.7806 16.1978 25.096L10.3167 19.048C9.89333 18.6126 9.89333 17.9051 10.3167 17.4697C10.7411 17.0343 11.4278 17.0343 11.8511 17.4697L17.7322 23.5177C18.3989 23.1074 19.1678 22.8571 20 22.8571C22.4544 22.8571 24.4444 24.904 24.4444 27.4286C24.4444 29.9531 22.4544 32 20 32ZM20 25.1429C18.7733 25.1429 17.7778 26.1669 17.7778 27.4286C17.7778 28.6903 18.7733 29.7143 20 29.7143C21.2267 29.7143 22.2222 28.6903 22.2222 27.4286C22.2222 26.1669 21.2267 25.1429 20 25.1429Z" fill="#6180A1"/>
</svg>
