<svg width="30" height="40" viewBox="0 0 30 40" fill="none" xmlns="http://www.w3.org/2000/svg">
<path fill-rule="evenodd" clip-rule="evenodd" d="M26.4706 40H3.52941C1.58029 40 0 38.4426 0 36.5217V3.47826C0 1.55739 1.58029 0 3.52941 0H20.2703C20.2721 0 20.2747 0 20.2765 0H20.2941C20.5765 0 20.8174 0.14 20.9788 0.343478L29.6515 8.89043C29.8588 9.04957 30 9.28696 30 9.56522V9.58348C30 9.58522 30 9.58609 30 9.58783V36.5217C30 38.4426 28.4197 40 26.4706 40ZM21.1765 2.94V8.69565H27.0168L21.1765 2.94ZM28.2353 10.4348H20.2941C19.8062 10.4348 19.4118 10.0452 19.4118 9.56522V1.73913H3.52941C2.55529 1.73913 1.76471 2.51826 1.76471 3.47826V36.5217C1.76471 37.4817 2.55529 38.2609 3.52941 38.2609H26.4706C27.4447 38.2609 28.2353 37.4817 28.2353 36.5217V10.4348ZM22.9412 33.0435H7.05882C6.57088 33.0435 6.17647 32.6548 6.17647 32.1739C6.17647 31.6939 6.57088 31.3043 7.05882 31.3043H22.9412C23.4291 31.3043 23.8235 31.6939 23.8235 32.1739C23.8235 32.6548 23.4291 33.0435 22.9412 33.0435ZM22.9412 26.087H7.05882C6.57088 26.087 6.17647 25.6983 6.17647 25.2174C6.17647 24.7374 6.57088 24.3478 7.05882 24.3478H22.9412C23.4291 24.3478 23.8235 24.7374 23.8235 25.2174C23.8235 25.6983 23.4291 26.087 22.9412 26.087ZM22.9412 19.1304H7.05882C6.57088 19.1304 6.17647 18.7417 6.17647 18.2609C6.17647 17.7809 6.57088 17.3913 7.05882 17.3913H22.9412C23.4291 17.3913 23.8235 17.7809 23.8235 18.2609C23.8235 18.7417 23.4291 19.1304 22.9412 19.1304Z" fill="#6180A1"/>
</svg>
