<svg width="57" height="57" viewBox="0 0 57 57" fill="none" xmlns="http://www.w3.org/2000/svg">
<path d="M28.5 0.5C13.036 0.5 0.5 13.036 0.5 28.5C0.5 43.964 13.036 56.5 28.5 56.5C43.964 56.5 56.5 43.964 56.5 28.5C56.5 13.036 43.964 0.5 28.5 0.5ZM43.4147 38.0047H39.8617C39.4768 38.0051 39.0969 37.9188 38.75 37.7522C38.4031 37.5855 38.0983 37.3429 37.8581 37.0422C36.7926 35.7044 34.6935 33.3324 32.4895 32.3136C32.3618 32.2538 32.2211 32.2272 32.0805 32.2362C31.9398 32.2452 31.8037 32.2895 31.6847 32.365C31.5657 32.4406 31.4676 32.5449 31.3996 32.6683C31.3316 32.7918 31.2958 32.9304 31.2955 33.0713V36.5853C31.2956 36.7717 31.2589 36.9563 31.1876 37.1285C31.1163 37.3007 31.0118 37.4571 30.88 37.5889C30.7482 37.7207 30.5918 37.8253 30.4196 37.8966C30.2474 37.968 30.0629 38.0047 29.8765 38.0047H28.2336C26.097 38.0047 21.4961 36.7041 17.8299 31.3635C14.7062 26.8135 13.3137 23.2873 12.5017 20.4282C12.4545 20.2607 12.4468 20.0844 12.4791 19.9134C12.5115 19.7423 12.5831 19.5811 12.6882 19.4423C12.7933 19.3036 12.9292 19.1911 13.0852 19.1137C13.2411 19.0363 13.4128 18.9961 13.5869 18.9962H17.1812C17.5398 18.9959 17.8889 19.1113 18.1766 19.3254C18.4643 19.5394 18.6753 19.8406 18.7781 20.1841C19.4465 22.4196 21.1777 27.2421 24.2378 29.6435C24.3311 29.7171 24.4432 29.7629 24.5613 29.7757C24.6794 29.7885 24.7988 29.7679 24.9057 29.7161C25.0126 29.6643 25.1028 29.5834 25.1659 29.4828C25.2291 29.3821 25.2626 29.2658 25.2627 29.147V23.5179C25.2627 22.4054 24.7806 21.2924 24.0281 20.4225C23.9197 20.2978 23.8494 20.1445 23.8257 19.9809C23.802 19.8173 23.8258 19.6504 23.8944 19.4999C23.9629 19.3495 24.0733 19.222 24.2123 19.1326C24.3513 19.0432 24.5131 18.9956 24.6784 18.9956H30.22C30.5054 18.9956 30.7791 19.109 30.9809 19.3108C31.1827 19.5125 31.296 19.7862 31.2961 20.0716V27.654C31.2961 27.7637 31.3263 27.8714 31.3834 27.9651C31.4405 28.0588 31.5223 28.1351 31.6199 28.1854C31.7174 28.2357 31.8269 28.2582 31.9364 28.2505C32.0459 28.2427 32.1512 28.205 32.2406 28.1414C33.2578 27.4173 34.129 26.3476 34.9303 25.1453C35.9387 23.6328 37.1693 21.1327 37.7866 19.8352C37.9061 19.5838 38.0944 19.3715 38.3297 19.2229C38.565 19.0742 38.8376 18.9953 39.1159 18.9953H43.0359C43.1996 18.9952 43.3606 19.037 43.5037 19.1166C43.6467 19.1961 43.767 19.3109 43.8533 19.4501C43.9395 19.5892 43.9888 19.748 43.9965 19.9115C44.0041 20.075 43.9699 20.2378 43.897 20.3844C42.9079 22.3684 40.9812 26.0082 39.1682 28.1437C38.9087 28.4508 38.7816 28.8483 38.8149 29.249C38.8482 29.6497 39.0391 30.0208 39.3457 30.2808C40.5275 31.2906 42.3725 33.1574 44.3616 36.2668C44.4713 36.437 44.5331 36.6336 44.5406 36.836C44.5481 37.0384 44.5009 37.239 44.404 37.4168C44.3071 37.5947 44.1641 37.7431 43.99 37.8465C43.8159 37.95 43.6172 38.0046 43.4147 38.0047Z" fill="white"/>
</svg>
